<svg xmlns="http://www.w3.org/2000/svg" width="22.002" height="21.862" viewBox="0 0 22.002 21.862">
  <g id="Group_4900" data-name="Group 4900" transform="translate(2.139 0)">
    <g id="Group_4726" data-name="Group 4726">
      <path id="Path_1825" data-name="Path 1825" d="M448,243.261v0l0-.011Z" transform="translate(-428.14 -233.378)" fill="#33c1d7"/>
    </g>
    <g id="Group_4881" data-name="Group 4881" transform="translate(-2.139)">
      <path id="Path_1826" data-name="Path 1826" d="M428.132,233.027c0-.192-.01-.389-.013-.553a1.187,1.187,0,0,0-.081-.373l-.005-.13h0c.005-.106.062.08.025-.276-.048-.312-.205-.7-.267-1.054l.01,0a4.333,4.333,0,0,0-.353-1.041c-.119-.3-.277-.577-.429-.948l.052.07a3.746,3.746,0,0,0-.257-.531c-.125-.2-.265-.43-.386-.657.068.13.1.256-.061,0a5.15,5.15,0,0,0-.43-.632c-.139-.179-.248-.356-.384-.522l-.311-.273-.3-.332c-.122-.12-.266-.246-.421-.387a10.435,10.435,0,0,0-1.128-.9,11.372,11.372,0,0,0-3.235-1.513,10.693,10.693,0,0,0-3.541-.391c-.266.02-.522.02-.76.056l-.667.106a8.474,8.474,0,0,0-.992.229l.075-.027a10.87,10.87,0,0,0-2.611,1.082,10.678,10.678,0,0,0-2.669,2.16,10.492,10.492,0,0,0-1.879,2.892,10.183,10.183,0,0,0-.782,2.76,8.36,8.36,0,0,0-.2,1.673c.033-.286.062-.187.049.035a4.065,4.065,0,0,0,.056.833c.025.026-.005.061.133.836a11.142,11.142,0,0,0,5.833,8.091,12.492,12.492,0,0,0,2.645.871l-.086-.005c.221.052.709.122,1.329.2l1.022.054c.363-.016.745-.028,1.126-.053.379-.057.761-.1,1.124-.172.358-.09.7-.171,1.014-.261a9.465,9.465,0,0,0,1.327-.533l-.132.053c.813-.433.73-.318,1.367-.676-.063-.009.073-.121.246-.261s.376-.322.494-.414v.021a11.866,11.866,0,0,0,1.541-1.58l.013.049c.2-.234.44-.613.7-.947.235-.351.435-.7.552-.889a11.4,11.4,0,0,0,.786-1.666,6.964,6.964,0,0,0,.307-1.011,10.818,10.818,0,0,0,.5-3.042l.012,0c.01.225.018.449.012.518a3.679,3.679,0,0,0-.012-.736.47.47,0,0,0,.021-.161C428.116,232.79,428.124,232.91,428.132,233.027Zm-2-.566c-.028.147-.055.29-.085.405.006.072.025-.049.043-.1-.022.191-.015,1.926-.1,2.148-.1.355-.142.642-.253,1.054a9.168,9.168,0,0,1-3.968,5.172c-.053.012,0-.02.051-.06a5.777,5.777,0,0,1-.842.484l-.416.208-.431.168a.864.864,0,0,1-.273.033,1.557,1.557,0,0,1-.463.154l-.527.141-.628.1a4.3,4.3,0,0,1-.641.058c-.207.007-.4.029-.568.023l-.579-.034-.049.074c-.671-.055-.185-.1-.8-.169-.266.1-1-.241-1.217-.24.007-.007-.277-.115-.247-.14-.107.023-.3-.094-.482-.145-.072-.009.041.033.083.067a3.3,3.3,0,0,1-.409-.16c-.148-.092-.17-.141,0-.066-.126-.068-.32-.15-.547-.282s-.5-.292-.773-.5a9.708,9.708,0,0,1-1.718-1.6,9.4,9.4,0,0,1-1.241-2.007,9.113,9.113,0,0,1-.528-1.484c0,.164.112.525.109.679-.161-.292-.117-.467-.2-.593a.969.969,0,0,0-.047-.437,1.586,1.586,0,0,1-.017-.53l-.072-.084.01-.164c-.095-.707-.085-.793-.094-.853a6.329,6.329,0,0,1,.038-.736c0-.369.033-.637.049-.868a2.08,2.08,0,0,1,.1-.618c-.016.059-.092.209-.058.02.059-.019.092-.5.165-.582.042-.183.271-.749.129-.582.063-.089.279-.587.185-.276.073-.168.166-.32.207-.446l-.12.2a7.257,7.257,0,0,1,.348-.677,3.16,3.16,0,0,0,.287-.528l-.143.182a1.73,1.73,0,0,1,.514-.651l-.211.316c.184-.245.329-.443.463-.634s.293-.346.45-.55l-.125.135a7.684,7.684,0,0,1,1.751-1.591c.217-.133.421-.294.64-.4l.609-.324c.386-.17.695-.3.832-.374l-.284.047a3.582,3.582,0,0,1,.495-.207c-.063.015-.2.23-.251.237.13-.055.343-.095.6-.168.131-.031.274-.08.432-.107l.509-.08a9.429,9.429,0,0,1,1.177-.1c.209-.01.423.015.639.021a4.237,4.237,0,0,1,.65.056,9.322,9.322,0,0,1,2.368.627c.322.157.613.293.845.415l.507.32c.344.243.017.111.009.116a3.3,3.3,0,0,1,.562.334c.089.079-.045.019-.1-.014.155.108.285.228.312.217-.178-.157-.056-.15-.111-.245a3.855,3.855,0,0,1,.435.358l-.046.015a2.625,2.625,0,0,1,.7.532,9.213,9.213,0,0,1,1.639,2.378,1.42,1.42,0,0,1-.226-.344,3.789,3.789,0,0,1,.175.4c-.058-.224.2.342.138.175a4.635,4.635,0,0,1,.458,1.031c.084.351.181.682.262.966a6.563,6.563,0,0,0-.083.686,2.83,2.83,0,0,0,.094-.648l.008.029A3.335,3.335,0,0,1,426.128,232.461Z" transform="translate(-406.132 -222.573)" fill="#33c1d7"/>
      <g id="Group_4727" data-name="Group 4727" transform="translate(4.651 5.221)">
        <path id="Path_1827" data-name="Path 1827" d="M416.651,241.485c.018.064.084.1.145.143A.253.253,0,0,0,416.651,241.485Z" transform="translate(-416.651 -237.598)" fill="#33c1d7"/>
        <path id="Path_1828" data-name="Path 1828" d="M416.937,241.768h0Z" transform="translate(-416.791 -237.736)" fill="#33c1d7"/>
        <path id="Path_1829" data-name="Path 1829" d="M438.829,233.861l-.042.042A.185.185,0,0,0,438.829,233.861Z" transform="translate(-427.502 -233.861)" fill="#33c1d7"/>
        <path id="Path_1830" data-name="Path 1830" d="M419.988,239.62l.047-.068c.154.077,0,.106.154.16.108-.075.231.13.308.1-.006.008.063.046.042.076.05-.045.078.023.129.031.024-.007,0-.022-.007-.045l.111.031c.03.038.023.076-.023.06.127.076.5.288.877.5.1.06.6.317.9.47.323.165.587.3.727.358-.078-.092-.248-.142-.314-.259.141.024.212.124.27.1a.25.25,0,0,0,.066.087c.09-.031.233-.2.333-.175l.017-.1.073-.014a2.856,2.856,0,0,1,.6-.557,2.45,2.45,0,0,0,.172-.178.555.555,0,0,0,.066-.1.261.261,0,0,1,.109-.119c-.012.01-.069.009-.043-.036.043.036.071-.116.126-.091.031-.037.152-.136.063-.157.045.01.159-.071.119.009.037-.03.078-.051.092-.086l-.059.024c.111-.114.214-.127.246-.247l-.064.017c.067-.067.123-.123.2-.093l-.058.082a1.222,1.222,0,0,0,.255-.29l-.036.03c.075-.166.686-.792.739-.964l-.091,0,.066-.124c-.012.01.077.183.055.177.208-.192,1.279-1.206,1.5-1.35.1-.046.075.056.081.063.082-.1,0-.083.085-.151.03-.012.025.038.019.056.031-.037.077-.051.062-.074-.059.024-.087-.046-.137-.064l.109-.089.025.038c.024-.02-.023-.145.1-.219.187-.14.365-.32.547-.468.015.022-.011.067-.037.112.024-.02.056-.057.09-.061-.074,0,.052-.089.006-.075.055-.2.287-.269.35-.426-.056-.083-.894-1.491-.972-1.579a.319.319,0,0,1,.09-.061c-.028-.013-.106.039-.132.083l.036.053c-.069.092-.045-.01-.124.066-.039-.035.03-.111.093-.174-.064.049-.149.074-.136.138-.071.034-.036-.053-.118-.009-.039.055-.068.149-.144.175l-.005-.008c-.171.081-.155.243-.314.314l0-.024c-.064.016-.123.123-.223.169.03-.012.074,0,.031.045-.113.056-.152.136-.246.165l-.03.094c-.322.274-1.521,1.438-1.832,1.726l.007-.017c-.466.449-1.46,1.329-1.913,1.826a.366.366,0,0,0-.081.035.055.055,0,0,0-.019,0c-.01,0-.018.008-.027.007.017.013.034.045.026.049-.05.038.015.033-.035.106a.252.252,0,0,1-.034.048.7.7,0,0,1-.111-.052l-.063-.038-.231-.126c-.343-.189-.655-.37-.778-.453-.2-.016-.374-.169-.555-.208l.024-.008c-.184-.062-1.123-.613-1.334-.69l.022.023c-.194-.047-.135-.107-.26-.2-.019.083-.189.049-.249.027l.01-.015c-.092-.031-.318-.065-.464-.126l.026-.037a1.833,1.833,0,0,1-.439-.185,2.9,2.9,0,0,0-.735-.413l-.109-.2h-.03s-.972,1.253-.78,1.721l-.025.038.07.029c.071.061.132.033.106.07l-.109-.061c.076.053.008.045-.035.053a.356.356,0,0,1,.084.069c.024-.008,0-.023-.012-.038.051.008.132,0,.175.046.082.046-.028.068.067.121.5.291.973.589,1.5.843,0,.022-.011.015-.03.015.165.062.3.138.453.192a.148.148,0,0,1,.032.091,1.632,1.632,0,0,1,.4.166l.281.139A1.351,1.351,0,0,1,419.988,239.62Z" transform="translate(-416.761 -233.872)" fill="#33c1d7"/>
      </g>
    </g>
  </g>
</svg>
