<svg xmlns="http://www.w3.org/2000/svg" width="15.02" height="10.446" viewBox="0 0 15.02 10.446">
  <g id="Group_4768" data-name="Group 4768" transform="translate(0.15 0.151)">
    <path id="Path_1859" data-name="Path 1859" d="M908.292,339.867h0Z" transform="translate(-894.892 -330.694)" fill="#904d94" stroke="#904d94" stroke-width="0.3"/>
    <path id="Path_1860" data-name="Path 1860" d="M864,309.813c-.007-.212-.029-.491-.016-.734l0,0c.024-.592-.035-.906-.011-1.447l.008.058c.013-.191,0-.568.01-.913,0,.1-.021.184-.024-.024.015-.4,0-.667.018-.957l-.022-.278c0-.689-.005-2.26-.01-4.1l-4.929.023.052,0c-2.012.012-6.142.01-8.221.043-.161-.012-.352-.016-.545-.019l-.99-.006c.354.01.243.026-.019.025h-.024c0,.949,0,.979.008,1.015a4.618,4.618,0,0,1,.017.594c.021,1.251,0,6.038-.022,7.148.015.165.018.791.019,1.285h.94c.2,0,.348,0,.509-.009l-.056.008,4.672.006-.093,0a9,9,0,0,1,1,.028c-.063-.039.456-.061.654-.063l-.007.008c.3-.006.974-.04,1.467-.045l-.019.021c.411-.023,1.183-.013,1.479-.016.675.009,1.717.046,2.62.018l1.067.06.408.017a.884.884,0,0,0,.024-.171c0,.018.006,0,.005-.07a.706.706,0,0,0,0-.229c0-.312.016-.907-.007-1C863.975,309.836,863.994,310.111,864,309.813Zm-.068,1.222-.01-.009C863.923,310.894,863.928,310.94,863.936,311.035Zm-12.605-8.587c.026.026.407-.018.481.008.15,0,.635,0,.47-.035.082.017.515.025.257.04.146,0,.287.006.392,0l-.187-.01c.493-.005.761.022,1.083-.01l-.182-.014a3.075,3.075,0,0,1,.657.03l-.3.011c.489,0,.783,0,1.191-.022h-.146c.519-.035,3.234-.063,3.712-.107l-.22-.027.411-.023c-.049,0-.2.088-.239.079l3.17-.009a2.641,2.641,0,0,1-.245.145l-.069.074c-.4.264-1.977,1.35-2.379,1.622l.014-.014c-.61.42-1.875,1.26-2.5,1.711a.712.712,0,0,1-.067.029l-.016,0a.176.176,0,0,1-.027.011.021.021,0,0,1,0,.03h0c-.029-.021-.031-.017-.033-.012a.009.009,0,0,1-.009.005l-.013,0a.239.239,0,0,1-.055-.032c-.376-.224-1.758-1.173-2.071-1.4-.191-.087-.4-.253-.576-.348l.021,0c-.189-.111-1.208-.826-1.427-.957l.026.023c-.2-.105-.152-.12-.292-.227,0,.045-.171-.042-.233-.079l.007-.006c-.095-.055-.319-.164-.472-.26l.017-.014a2.756,2.756,0,0,1-.307-.186c.061,0,.121,0,.183,0C851.308,302.474,851.177,302.456,851.33,302.448Zm10.558,8.169c-.291,0-.019-.034-.358-.037-1.791-.016-3.527-.041-5.337-.036-.041-.009.008-.009.06-.012l-1.527.015a1.083,1.083,0,0,1-.216-.031c.041.009-.645.014-1.346.016h-1.441l-.035.038c-.537,0-.156-.044-.653-.034a2.321,2.321,0,0,1-.507.021l-.261-.006c-.005,0-.009,0-.016.008s-.014-.006,0-.023a.06.06,0,0,1-.017.015s.005-.017,0-.021-.009.006-.017.016l0-.016,0-.009v-.044c.009-.144.025-.18.028-.023.01-.964.037-5.6.023-6.634-.021.134-.007.454-.04.576-.018-.275.007-.4-.013-.526.049-.105.012-.6.062-.812l-.028-.079.009-.071c.471.332.932.66,1.422.981.008.016-.007.006-.025,0l.475.3a.192.192,0,0,1,.05.071,4.472,4.472,0,0,1,.42.261l.3.2c.083.055.139.094.142.1l.03-.025c.165.109.026.069.182.162.087-.006.25.173.317.184,0,0,.07.054.057.065.038-.01.08.045.131.07.021,0-.008-.016-.016-.032l.113.063c.037.036.039.057-.008.03.276.2,1.61,1.117,1.921,1.306-.028-.045-.129-.094-.147-.147.09.037.114.084.16.09,0,.064.169.127.2.212l.038-.009a.844.844,0,0,0,.062.062,4.439,4.439,0,0,1,.515.327l.261-.167c.4-.272.379-.306.505-.372-.015.01-.064.021-.021-.016.021.016.115-.1.151-.092.044-.033.194-.129.126-.125.034,0,.17-.084.1-.019a.782.782,0,0,0,.12-.081l-.062.03a1.88,1.88,0,0,0,.326-.229l-.063.025c.089-.062.163-.114.216-.109l-.087.071a3.4,3.4,0,0,0,.353-.261l-.045.029c.141-.135.958-.712,1.082-.847l-.081.022.114-.1c-.015.01-.016.115-.033.115.268-.182,1.661-1.133,1.919-1.283.108-.054.04.024.041.029.117-.09.038-.059.143-.127.031-.015,0,.022-.009.036.044-.033.091-.053.088-.066-.062.03-.055-.015-.09-.017l.135-.087,0,.022c.03-.019.046-.1.183-.177.226-.14.463-.306.689-.45,0,.013-.04.05-.083.088a.6.6,0,0,1,.106-.063c-.065.017.086-.075.039-.055a1.9,1.9,0,0,1,.353-.266c0,.436,0,.775-.005.933-.014.345-.041.062-.045.058.01.42.027.181.025.538,0,.1-.02-.02-.024-.075a2.415,2.415,0,0,0,.006.314c.009-.2.041-.113.062-.2l0,.459-.02-.021a4.567,4.567,0,0,1,.044.711c0,.762,0,1.587-.006,2.353a1.973,1.973,0,0,1-.026-.334c0,.1,0,.259-.006.353.021-.185.014.321.023.177.044.5.013,2.044.03,2.708l-.437-.005c.076.01.249.017.437.021v.007c-.279-.006-.552-.017-.446-.029-.119,0-.234,0-.328-.011-.056.008.041.009.085.013A5.5,5.5,0,0,1,861.889,310.617Zm.385.007.856,0v0C862.838,310.622,862.254,310.644,862.273,310.624Z" transform="translate(-849.283 -301.424)" fill="#904d94" stroke="#904d94" stroke-width="0.3"/>
  </g>
</svg>
