<svg xmlns="http://www.w3.org/2000/svg" width="400" height="145.845" viewBox="0 0 400 145.845">
  <g id="Group_5056" data-name="Group 5056" transform="translate(-182.691 -383.795)">
    <path id="Path_1897" data-name="Path 1897" d="M412.25,513.559q2.272,7.724,6.592,11.5a18.7,18.7,0,0,0,12.761,4.4q7.933,0,12.869-4.4a20.332,20.332,0,0,0,4.88-7.072,35.269,35.269,0,0,1-37.1-4.431Z" transform="translate(-50.521 -28.558)" fill="none"/>
    <path id="Path_1898" data-name="Path 1898" d="M255.708,426.675q-2.9,4.826-5.469,8.686l-25.094,36.676q-1.076,1.719-2.145,3.217t-2.359,3.217h39.893v-42.9q0-4.288.215-8.9t.429-9.33h-.429Q258.6,421.849,255.708,426.675Z" transform="translate(-8.352 -7.384)" fill="none"/>
    <path id="Path_1899" data-name="Path 1899" d="M448.421,429.815a18.547,18.547,0,0,0-3.725-4.774q-4.936-4.393-12.869-4.4a18.719,18.719,0,0,0-12.761,4.4,21.8,21.8,0,0,0-5.8,9.107,35.3,35.3,0,0,1,35.152-4.333Z" transform="translate(-50.745 -8.11)" fill="none"/>
    <path id="Path_1900" data-name="Path 1900" d="M610.456,426.675q-2.9,4.826-5.469,8.686l-25.095,36.676q-1.075,1.719-2.145,3.217t-2.358,3.217h39.892v-42.9q0-4.288.214-8.9t.429-9.33H615.5Q613.35,421.849,610.456,426.675Z" transform="translate(-86.424 -7.384)" fill="none"/>
    <path id="Path_1901" data-name="Path 1901" d="M284.354,386.545h-43.11l-46.113,67.561q-4.293,6.434-7.4,11.367t-5.04,8.365V497h69.062v31.1h32.6V497h21.662V471.693H284.354ZM252.4,419.9q-.216,4.614-.215,8.9v42.9H212.289q1.287-1.714,2.359-3.217t2.145-3.217l25.094-36.676q2.574-3.861,5.469-8.686t5.041-9.33h.429Q252.609,415.287,252.4,419.9Z" transform="translate(0 -0.605)" fill="#a95ea4"/>
    <path id="Path_1902" data-name="Path 1902" d="M639.1,471.693V386.545H595.991l-46.113,67.561q-4.293,6.434-7.4,11.367t-5.041,8.365V497H606.5v31.1h32.6V497h21.662V471.693Zm-31.957-51.8q-.215,4.614-.214,8.9v42.9H567.037q1.286-1.714,2.358-3.217t2.145-3.217l25.095-36.676q2.573-3.861,5.469-8.686t5.04-9.33h.429Q607.357,415.287,607.143,419.9Z" transform="translate(-78.072 -0.605)" fill="#a95ea4"/>
    <path id="Path_1903" data-name="Path 1903" d="M453.077,466.618q0-15.871-2.252-25.63a35.034,35.034,0,0,0-3.461-9.382,35.3,35.3,0,0,0-35.152,4.333,41.963,41.963,0,0,0-1.5,5.049q-2.252,9.762-2.252,25.63t2.252,25.63c.213.924.45,1.8.7,2.653a35.268,35.268,0,0,0,37.1,4.431,39.2,39.2,0,0,0,2.305-7.084Q453.076,482.491,453.077,466.618Z" transform="translate(-49.688 -9.9)" fill="#acd6f2"/>
    <path id="Path_1904" data-name="Path 1904" d="M458.34,432.4a35.035,35.035,0,0,1,3.461,9.382q2.252,9.762,2.252,25.63t-2.252,25.63a39.206,39.206,0,0,1-2.305,7.084A37.335,37.335,0,0,0,458.34,432.4Z" transform="translate(-60.664 -10.698)" fill="#acd6f2"/>
    <path id="Path_1905" data-name="Path 1905" d="M464.343,402.24Q449.434,383.8,420.481,383.8t-43.86,18.445q-14.909,18.449-14.906,54.478T376.621,511.2q14.9,18.448,43.86,18.445T464.343,511.2q14.9-18.443,14.906-54.478T464.343,402.24ZM438.23,489.432a20.332,20.332,0,0,1-4.88,7.072q-4.936,4.4-12.869,4.4a18.7,18.7,0,0,1-12.761-4.4q-4.326-3.771-6.592-11.5c-.25-.852-.487-1.729-.7-2.653q-2.252-9.757-2.252-25.63t2.252-25.63a41.97,41.97,0,0,1,1.5-5.049,21.8,21.8,0,0,1,5.8-9.107,18.719,18.719,0,0,1,12.761-4.4q7.933,0,12.869,4.4a18.547,18.547,0,0,1,3.725,4.774,37.335,37.335,0,0,1,1.155,67.726Z" transform="translate(-39.399 0)" fill="#a95ea4"/>
  </g>
</svg>
