<svg xmlns="http://www.w3.org/2000/svg" width="21.079" height="20.943" viewBox="0 0 21.079 20.943">
  <path id="Path_1700" data-name="Path 1700" d="M404.654,920.387v-8.14h2.717l.407-3.1h-3.135c0-.7-.008-1.363,0-2.03a1.991,1.991,0,0,1,.223-1.054,1.066,1.066,0,0,1,.868-.5c.641-.052,1.288-.046,1.932-.064.054,0,.108,0,.183,0v-2.744c-.938-.027-1.882-.121-2.815-.062a3.648,3.648,0,0,0-2.814,1.471,4.665,4.665,0,0,0-.58,1.291,7.782,7.782,0,0,0-.171,2.409c-.006.415,0,.83,0,1.276h-2.724v3.093h2.709V920.4h-.281q-4.858,0-9.717,0a1.245,1.245,0,0,1-1.191-.668.67.67,0,0,1-.073-.307q-.005-9.486,0-18.973a1.052,1.052,0,0,1,1.008-.986q9.525,0,19.05-.01a1.245,1.245,0,0,1,.959.779,3.583,3.583,0,0,1,.059.64q0,9.106,0,18.212a1.139,1.139,0,0,1-.751,1.212,1.324,1.324,0,0,1-.5.1c-1.743.007-3.485,0-5.228,0C404.757,920.4,404.721,920.392,404.654,920.387Z" transform="translate(-390.19 -899.456)" fill="#000"/>
</svg>
