<svg xmlns="http://www.w3.org/2000/svg" width="21.677" height="21.576" viewBox="0 0 21.677 21.576">
  <g id="Group_4908" data-name="Group 4908" transform="translate(1116.789 1506.122)">
    <path id="Path_1872" data-name="Path 1872" d="M-1018.521-1459.316c.006.1.011.2.016.283C-1018.513-1459.125-1018.518-1459.221-1018.521-1459.316Z" transform="translate(-76.608 -36.489)" fill="#000"/>
    <path id="Path_1873" data-name="Path 1873" d="M-1095.176-1496.41c.023.168.033.394.047.6-.005-.191-.011-.382-.016-.543a1.377,1.377,0,0,0-.075-.367c-.038-.357.054.033,0-.4-.044-.307-.192-.688-.257-1.037l.008,0a4.666,4.666,0,0,0-.345-1.023c-.114-.3-.267-.57-.421-.933l.048.071a4.079,4.079,0,0,0-.254-.521c-.123-.2-.26-.423-.381-.645.068.127.109.248-.052-.007a2.386,2.386,0,0,0-.217-.337l-.209-.284c-.137-.176-.244-.351-.381-.511l-.3-.274-.3-.327c-.12-.118-.262-.242-.414-.381l-.239-.215a2.5,2.5,0,0,0-.266-.22l-.6-.449a11.219,11.219,0,0,0-3.182-1.492c-.3-.073-.6-.158-.9-.218l-.031,0-.065-.016-.836-.119c-.071-.009-.141-.022-.212-.028l-.215-.01-.434-.02c-.145,0-.29-.018-.436-.012l-.437.022a10.36,10.36,0,0,0-3.325.7,10.128,10.128,0,0,0-2.472,1.373c-.1.064-.214.138-.329.217l-.174.122-.164.142-.629.556c.22-.178.167-.094,0,.052a4.829,4.829,0,0,0-.544.618.227.227,0,0,1-.023.038,10.145,10.145,0,0,0-1.63,2.589,10.724,10.724,0,0,0-.718,2.325c0,.023-.011.045-.014.068l-.058.386q-.034.153-.066.325l-.037.21-.016.217c-.018.291-.036.585-.051.838.017-.169.032-.2.039-.151s0,.091-.007.136c0,.255.018.5.027.745.007.121.006.24.019.356s.031.229.046.339c.03.221.059.432.086.63l.125.544.105.454.11.34c.083.2.166.409.248.627l.3.644.151.323.178.3c.119.2.236.388.35.562l-.054-.065a4.841,4.841,0,0,0,.3.422c.138.179.29.411.489.647l.676.751.118.108c.15.141.3.278.444.412.09.08.174.165.265.238l.272.208.506.385.473.3.4.246.318.163c.2.081.406.172.618.268l.668.243.335.121.339.088.082.02c.1.031.214.067.38.112-.01-.011-.006-.017.007-.021l.176.039-.084-.008a4.892,4.892,0,0,0,.508.088c.225.03.5.085.8.112l1.009.053c.359-.017.735-.029,1.112-.054.374-.057.751-.1,1.109-.171.353-.09.694-.17,1-.258l.8-.291a2.143,2.143,0,0,0,.3-.128l.216-.107-.13.053c.4-.214.583-.288.74-.36s.291-.137.6-.316c-.058,0,.078-.109.252-.244s.375-.313.491-.4v.018c.086-.071.205-.157.329-.272l.132-.13.131-.094.089-.093s0-.013,0-.032l.044-.043a9.1,9.1,0,0,0,.708-.772.672.672,0,0,0,.025.227c-.15.164-.3.326-.35.371a4.4,4.4,0,0,0,.5-.524l-.01-.061c.338-.41.118-.064.428-.481.024,0-.034.1-.129.24s-.255.3-.394.461l.373-.4a1.39,1.39,0,0,0,.207-.313c.226-.279.015.062.285-.278.186-.248.351-.622.552-.915l0,.009a4.641,4.641,0,0,0,.48-.967c.132-.293.214-.592.362-.957l-.016.084a4.092,4.092,0,0,0,.19-.548c.055-.228.115-.483.186-.725-.042.138-.1.252-.032-.042a2.408,2.408,0,0,0,.085-.391c.018-.123.036-.238.053-.348.027-.221.075-.421.092-.631l-.019-.406c.006-.125.013-.273.021-.441,0-.152-.012-.322-.021-.5,0,0,.009.005.011.005.01.222.018.442.014.51a4.376,4.376,0,0,0-.017-.725l-.02-.015-.008-.155a2.542,2.542,0,0,0-.032-.343l-.025-.164C-1095.234-1496.672-1095.207-1496.568-1095.176-1496.41Zm-1.835,2.075a.816.816,0,0,1-.132.058c-.014.024.023,0,.043,0a.666.666,0,0,1-.192.147c-.111.062-.035-.044-.164.029-.336.2-.69.344-1.036.506-.175.077-.343.17-.522.238s-.357.143-.536.22c-.022-.006,0-.014.016-.028-.213.1-.4.19-.6.265a.192.192,0,0,1-.105-.019,2.252,2.252,0,0,1-.39.153l.005-.032.045-.269.028-.27c.017-.179.034-.353.051-.521l.041-.476c.005-.149,0-.288,0-.411a3.282,3.282,0,0,0,.064-.519c-.02.088-.045.057-.041-.012.022-.483-.013-.033-.029-.522-.012-.141-.021-.381-.028-.67,0-.144,0-.3-.012-.463s-.028-.33-.042-.5c-.028-.552-.109-1.089-.151-1.4.378.134.745.25.874.3l-.035-.023c.256.069.2.112.384.209,0-.068.221-.015.3.014l-.008.011a4.1,4.1,0,0,1,.615.2l-.022.027a4.53,4.53,0,0,1,.59.269c.265.134.621.432.986.593l.064.082c.048.169.05.218.068.255a1.356,1.356,0,0,1,.057.3c.01.121-.038-.02-.053-.086a2.145,2.145,0,0,0,.066.382c-.02-.241.049-.146.069-.253a4,4,0,0,1,.056.571l-.035-.023a2.472,2.472,0,0,0,.057.278c.014.067.028.149.039.249q.008.075.014.164c0,.06-.006.125-.011.2,0,.1-.006.192-.011.289a2.046,2.046,0,0,0-.093.315l-.033-.027c-.006.083,0,.166-.013.249a.482.482,0,0,0-.048-.007q.013-.053.023-.108c.012-.007.023-.01.035-.018a.221.221,0,0,0-.032,0,4.882,4.882,0,0,0,.059-.629,4.284,4.284,0,0,0-.077.631,1,1,0,0,0-.2.087.527.527,0,0,0,.2-.068c0,.033-.006.066-.009.1a.4.4,0,0,0-.074,0l-.011-.033-.086.056c-.115.049-.144.112-.154.078l.148-.083C-1097.107-1494.235-1097.042-1494.294-1097.011-1494.335Zm-2.479-7.652c.158.144.294.316.446.476l.224.245a3.216,3.216,0,0,1,.2.264l.4.534.332.558c.053.092.11.18.158.271l.128.277.06.128-.186-.1c-.187-.1-.368-.207-.564-.289s-.392-.167-.593-.249c-.013-.021.009-.011.034-.007-.248-.082-.454-.19-.687-.245a.211.211,0,0,1-.081-.08c.027.04-1.255-.391-1.283-.375l-.032.056c-.2-.049-.119-.075-.194-.1-.023-.083-.047-.167-.075-.25a11.114,11.114,0,0,0-.358-1.066l.01.044c-.142-.252-.07-.238-.139-.455-.047.051-.173-.162-.213-.246l.014,0c-.064-.126-.231-.4-.35-.6l.035-.007a5.208,5.208,0,0,1-.334-.61c-.021-.053-.047-.112-.073-.173l.255.093.015.006c.283.138.541.259.758.37.087.051.188.112.3.178l.315.2c.354.242.028.1.02.1.23.123.27.164.316.179a1.355,1.355,0,0,1,.252.172c.092.079-.041.012-.1-.023a2.179,2.179,0,0,0,.317.224c-.13-.111-.111-.134-.11-.17C-1100.015-1502.471-1099.767-1502.224-1099.491-1501.987Zm-2.841,9.7c-.021.017.02.011.041.022l-.146.042c-.061-.005-.08-.03-.018-.046l-.525.073c-.119.016-.248.039-.385.053l-.424.031c-.287.017-.573.057-.816.057s-.441.01-.547.018c.055.034.186.007.238.062-.112.034-.166-.007-.215.027-.044-.083-.248-.014-.333-.1l-.032.048-.056-.028a1.585,1.585,0,0,1-.552-.01,4.254,4.254,0,0,1-.52.024c.021,0,.075.033.008.042-.008-.043-.179.024-.207-.026-.065,0-.274-.032-.208.033-.033-.032-.219-.066-.1-.077a.665.665,0,0,0-.17-.017l.079.025a1.6,1.6,0,0,0-.47-.038l.076.031c-.128-.011-.236-.019-.277-.08l.133,0c-.212-.018-.337-.047-.517-.046l.062.013c-.116.007-.468-.03-.82-.066l-.1-.012-.16-.828-.048-.248c-.011-.083-.022-.166-.032-.247-.022-.163-.044-.324-.065-.477l-.064-.436c-.013-.136-.025-.263-.036-.375a2.774,2.774,0,0,0,.017-.479c-.012.081-.04.055-.041-.009-.012-.444-.039-.029-.054-.479-.006-.13,0-.351,0-.617,0-.133,0-.277.014-.427s.033-.3.049-.456a9.942,9.942,0,0,1,.24-1.434,1.475,1.475,0,0,1,.02-.281l.136-.035.961-.185.248-.048.247-.032.477-.065.436-.064.375-.037a2.774,2.774,0,0,0,.479.017c-.082-.012-.055-.04.009-.042.444-.012.029-.039.479-.055.129-.006.351,0,.617,0,.133,0,.278,0,.427.013l.456.049a9.99,9.99,0,0,1,1.434.24c.033,0,.07,0,.1,0a.149.149,0,0,0,.031.069c-.007,0,.016.1-.013.1.056.021.032.1.055.165.017.021.011-.02.022-.041l.042.146c-.005.061-.03.081-.046.018l.073.525c.016.119.039.248.053.385l.031.424c.017.287.057.573.057.816s.01.441.018.547c.034-.055.007-.186.062-.238.034.112-.007.166.027.215-.083.045-.014.248-.1.333l.048.032-.028.056a1.593,1.593,0,0,1-.01.552,4.31,4.31,0,0,1,.024.52c0-.021.033-.075.042-.008-.043.008.024.179-.026.207,0,.065-.032.274.033.209-.033.033-.066.219-.077.1a.666.666,0,0,0-.017.17l.025-.079a1.605,1.605,0,0,0-.038.47l.031-.076c-.011.128-.019.235-.081.277l0-.133c-.018.211-.047.337-.046.517l.013-.062c.007.107-.025.415-.057.738A.256.256,0,0,0-1102.332-1492.283Zm-10.359-1c-.036-.021.02-.029.044-.027-.064-.017-.116-.052-.128-.035.072.043.019.082.039.126-.06-.025-.121-.045-.18-.073l.02-.028c-.039-.018-.135.045-.305-.047-.292-.138-.619-.262-.915-.395.013-.017.081,0,.148.014a.524.524,0,0,1-.134-.068c.057.066-.134-.034-.084,0-.25-.026-.5-.227-.71-.265-.008.011-.045.049-.1.1l-.034-.049,0-.168a3.132,3.132,0,0,1-.052-.435l-.022-.253c-.01-.121-.014-.157-.015-.189s0-.058,0-.158.019-.273.036-.6c0-.378.041-.653.06-.89l0-.051v0c.007-.043.013-.086.019-.13a.138.138,0,0,0,.079-.062c.1-.03.01.048.131.01a.9.9,0,0,1,.267-.156v.007c.242-.069.319-.219.543-.276l-.017.021c.083-.01.216-.1.359-.133-.041.009-.086,0-.007-.041.163-.042.258-.108.382-.127l.093-.081c.265-.122.935-.367,1.6-.626l.55-.179c-.024.129-.055.269-.077.417l-.054.471c-.031.319-.081.64-.085.911s-.011.492-.008.61c.037-.06.016-.207.074-.26.029.125-.015.183.017.239-.085.046-.026.273-.113.368l.047.036-.03.062a2.319,2.319,0,0,1,.038.611,5.2,5.2,0,0,1,.076.567c0-.023.025-.087.041-.015-.041.015.037.191,0,.229.013.07.034.3.082.216-.024.041-.012.246-.051.127a.784.784,0,0,0,.024.185l.005-.09a1.9,1.9,0,0,0,.075.507l.012-.089c.02.138.037.253-.012.315l-.034-.14a2.255,2.255,0,0,0,.122.55l-.011-.068c.015.036.035.1.057.176a15.426,15.426,0,0,1-1.657-.561c-.128-.072,0-.074,0-.08C-1112.634-1493.287-1112.551-1493.225-1112.69-1493.28Zm-2.3-3.647c0-.015.005-.03.008-.045l.038-.017C-1114.931-1496.975-1114.952-1496.952-1114.987-1496.927Zm.317,4.578-.006-.018,0,0Zm5.52-11.615-.007.013-.141.039Zm.54,2.567c.069-.256.112-.2.209-.384-.068,0-.014-.221.014-.3l.011.009a4.137,4.137,0,0,1,.2-.615l.027.022a4.546,4.546,0,0,1,.269-.59c.134-.265.432-.62.593-.986l.213-.168,0-.016.129-.021c.238-.021.463-.036.725-.065l-.187.008c.083-.011.211-.024.373-.039l.574.008c.108,0,.223,0,.341.008l.364.043.275.032a.919.919,0,0,0,.088.21.532.532,0,0,0-.072-.208l.1.013a.4.4,0,0,0,0,.078l-.033.011.056.086c.049.115.112.144.078.154l-.083-.148c.055.112,0,.047-.045.016a.851.851,0,0,1,.058.132c.024.014,0-.023,0-.043a.667.667,0,0,1,.147.192c.062.111-.043.035.029.164.2.336.344.69.506,1.036.077.175.169.343.238.522s.143.357.22.536c-.006.022-.014,0-.029-.016.1.213.19.4.265.6a.193.193,0,0,1-.018.105s.005,0,.01.012c-.055-.01-.11-.021-.168-.029l-.471-.054c-.319-.031-.64-.081-.911-.085s-.492-.011-.61-.007c.06.037.207.016.26.074-.125.029-.183-.015-.239.017-.047-.085-.274-.026-.368-.113l-.035.047-.062-.03a2.339,2.339,0,0,1-.611.038,5.206,5.206,0,0,1-.568.076c.023,0,.087.025.015.041-.015-.04-.191.037-.229,0-.07.013-.3.034-.216.082-.041-.024-.246-.012-.127-.051a.8.8,0,0,0-.185.024l.09.006a1.891,1.891,0,0,0-.507.074l.088.013c-.138.02-.253.037-.315-.012l.14-.034a2.271,2.271,0,0,0-.551.123l.068-.011a3.507,3.507,0,0,1-.363.11c.112-.324.206-.619.252-.731Zm-5.413,1.661a4.671,4.671,0,0,0,.237-.417c.031-.048.064-.1.1-.153a3.139,3.139,0,0,1,.2-.256l-.085.125.125-.168a.91.91,0,0,1,.117-.107l.012-.066.08-.109.048-.046a3.109,3.109,0,0,1,.271-.344l.164-.194c.078-.093.1-.121.123-.144l.11-.113c.07-.071.207-.179.448-.4.268-.267.491-.433.672-.587a2.377,2.377,0,0,1,.523-.372c-.054.031-.214.092-.051-.018.05.019.436-.292.539-.305.164-.1.739-.347.522-.314.054-.01.209-.071.313-.109s.162-.045.013.028c.131-.052.263-.09.373-.131l-.225.413c-.1.187-.206.368-.289.564s-.168.392-.249.593c-.021.013-.011-.009-.008-.034-.082.248-.19.454-.245.687a.206.206,0,0,1-.08.081c.04-.027-.39,1.255-.375,1.283l.056.032a.618.618,0,0,1-.03.095c-.751.218-2.04.661-2.318.755-.152.029-.05-.056-.051-.063-.17.079-.059.071-.209.121-.044.007,0-.035.017-.049-.063.028-.13.036-.127.057.088-.015.072.048.12.068-.064.023-.129.041-.192.067l0-.035c-.042.017-.071.131-.262.191-.26.1-.531.215-.794.324a8.691,8.691,0,0,1,.581-1.171,4.148,4.148,0,0,0-.29.428C-1114.1-1499.6-1114.063-1499.673-1114.023-1499.737Zm1.917,11.21a9.846,9.846,0,0,1-.874-.911c-.134-.166-.255-.343-.383-.511-.062-.086-.129-.168-.186-.255l-.159-.267c-.1-.178-.216-.345-.306-.518l-.243-.509c-.136-.3-.245-.582-.331-.829a1.474,1.474,0,0,1,.236.108c-.037-.024-.061-.065.026-.034.153.091.274.115.381.193l.129.012c.276.134,1,.376,1.722.624.707.2,1.407.405,1.734.471.153.627.73,2.305.84,2.628.03.152-.056.05-.063.051.079.17.071.059.121.209.007.043-.035,0-.049-.017.028.063.036.13.057.127-.015-.087.048-.072.068-.12.022.064.041.13.067.192l-.035,0c.017.042.131.071.191.261.116.315.268.646.391.96-.021,0-.059-.057-.1-.117a.593.593,0,0,1,.051.148c0-.042.018-.018.035.013-.079-.028-.157-.057-.235-.081l-.453-.153-.433-.193a1.1,1.1,0,0,1-.229-.161c.01.009-.032-.007-.114-.042s-.192-.108-.333-.187-.307-.175-.484-.281l-.528-.385a3.685,3.685,0,0,1-.449-.371C-1112.063-1488.487-1112.085-1488.505-1112.106-1488.526Zm5.062,2.215c.019-.014.05.023.084.078l-.057-.007A.219.219,0,0,0-1107.045-1486.312Zm3.827-2.475c-.072.128-.074,0-.08,0-.045.172.017.088-.037.228-.021.036-.029-.02-.027-.044-.017.064-.052.116-.035.128.043-.072.082-.019.126-.04-.024.06-.045.121-.073.18l-.029-.021c-.018.04.045.136-.047.305-.138.292-.262.619-.395.915-.017-.013,0-.081.014-.148a.533.533,0,0,1-.067.134c.065-.057-.034.134,0,.084-.026.248-.224.493-.265.706a9.444,9.444,0,0,1-2.811.133c-.02-.053-.041-.1-.075-.109-.03-.1.048-.011.01-.131a.9.9,0,0,1-.156-.267h.007c-.069-.242-.22-.318-.276-.542l.021.017c-.01-.083-.1-.216-.133-.359.009.041,0,.085-.042.007-.042-.163-.108-.258-.127-.382l-.081-.093c-.122-.265-.367-.935-.626-1.6-.1-.321-.21-.641-.3-.92l.258.044.269.045.27.028.521.051.476.041c.149.005.288,0,.412,0a3.263,3.263,0,0,0,.519.064c-.088-.02-.057-.045.012-.041.483.022.033-.013.522-.029.141-.012.381-.021.67-.028.144-.005.3,0,.463-.013l.5-.041c.453-.023.9-.082,1.215-.125A16.785,16.785,0,0,1-1103.218-1488.787Zm2.025,1.286c-.052.015,0-.017.055-.057l-.431.272c-.017.011-.035.018-.052.028-.082.044-.165.088-.249.129l-.052.025q-.191.093-.386.176c.091-.153.115-.273.193-.38l.012-.129c.134-.276.376-1,.624-1.722.211-.736.424-1.469.48-1.777v.025l.018-.077a6.212,6.212,0,0,0,.607-.165,11.209,11.209,0,0,0,1.066-.358l-.044.01c.252-.142.238-.07.454-.139-.051-.047.162-.173.246-.213l0,.014c.126-.064.4-.231.6-.35l.007.035a5.212,5.212,0,0,1,.609-.335c.068-.027.146-.06.227-.1A9.365,9.365,0,0,1-1101.193-1487.5Z" fill="#000"/>
    <path id="Path_1874" data-name="Path 1874" d="M-1032.108-1423.964c-.065.07-.13.141-.189.212Z" transform="translate(-65.868 -64.048)" fill="#000"/>
    <path id="Path_1875" data-name="Path 1875" d="M-1060.544-1497.606v0Z" transform="translate(-43.846 -6.636)" fill="#000"/>
    <path id="Path_1876" data-name="Path 1876" d="M-1027.062-1452.654h0Z" transform="translate(-69.948 -41.682)" fill="#000"/>
  </g>
</svg>
