<svg id="yldjkW.tif" xmlns="http://www.w3.org/2000/svg" width="21.159" height="21.013" viewBox="0 0 21.159 21.013">
  <g id="Group_74" data-name="Group 74">
    <path id="Path_152" data-name="Path 152" d="M178.128,676.505c1.209,0,2.419,0,3.628,0,.458,0,.918,0,1.374.029a5.9,5.9,0,0,1,2.2.625,6.188,6.188,0,0,1,2.032,1.631,5.887,5.887,0,0,1,1.077,2,6.3,6.3,0,0,1,.274,1.927c-.008,1.854,0,3.708,0,5.563,0,1.121.009,2.242-.005,3.363a5.66,5.66,0,0,1-.47,2.128,6.022,6.022,0,0,1-1.4,2.025,6.12,6.12,0,0,1-2.322,1.406,6.908,6.908,0,0,1-2.263.315c-1.888-.009-3.777,0-5.665,0-1.027,0-2.054,0-3.081,0a5.694,5.694,0,0,1-1.524-.243,6.075,6.075,0,0,1-2.408-1.339,6,6,0,0,1-1.463-1.988,6.206,6.206,0,0,1-.452-1.433,8.91,8.91,0,0,1-.1-1.672q0-1.8,0-3.6,0-1.77,0-3.54c0-.48,0-.961.016-1.441a5.408,5.408,0,0,1,.218-1.3,5.993,5.993,0,0,1,1.056-2.08,6.094,6.094,0,0,1,2.4-1.861,6.165,6.165,0,0,1,1.339-.4,10.8,10.8,0,0,1,1.977-.1c.849,0,1.7,0,2.546,0h1.018Zm8.957,10.482h0v-1.719c0-.859,0-1.719,0-2.578a4.463,4.463,0,0,0-2.468-4.083,3.936,3.936,0,0,0-1.518-.445c-.452-.03-.907-.035-1.36-.036-1.188,0-2.376,0-3.564,0-1.2,0-2.41,0-3.615,0a9.384,9.384,0,0,0-1.7.077,4.289,4.289,0,0,0-1.537.582,4.371,4.371,0,0,0-2.119,3.47c-.04.481-.019.968-.02,1.453q0,1.77,0,3.539,0,1.789,0,3.577a6.474,6.474,0,0,0,.137,1.693,4.459,4.459,0,0,0,2.261,2.863,4.572,4.572,0,0,0,1.309.451,9.368,9.368,0,0,0,1.675.069c.844,0,1.689,0,2.533,0l2.571,0c.861,0,1.723-.007,2.584,0a5.194,5.194,0,0,0,1.824-.256,4.448,4.448,0,0,0,1.958-1.354,4.394,4.394,0,0,0,1.049-2.869C187.091,689.945,187.085,688.466,187.085,686.987Z" transform="translate(-167.552 -676.503)" fill="#000"/>
    <path id="Path_153" data-name="Path 153" d="M370.573,873.761a5.695,5.695,0,1,1-5.77-5.666A5.682,5.682,0,0,1,370.573,873.761Zm-5.707-4.037a4.034,4.034,0,1,0,4.08,3.934A4.034,4.034,0,0,0,364.866,869.724Z" transform="translate(-354.298 -863.245)" fill="#000"/>
    <path id="Path_154" data-name="Path 154" d="M806.75,804.589a.8.8,0,0,1,.8.812.816.816,0,0,1-1.632,0A.8.8,0,0,1,806.75,804.589Z" transform="translate(-790.459 -800.541)" fill="#000"/>
  </g>
</svg>
