<svg xmlns="http://www.w3.org/2000/svg" width="22" height="29.275" viewBox="0 0 22 29.275">
  <g id="Group_4729" data-name="Group 4729">
    <path id="Path_1831" data-name="Path 1831" d="M442.69,301.237v.005l0-.011Z" transform="translate(-422.842 -292.145)" fill="#a95ea4"/>
    <path id="Path_1832" data-name="Path 1832" d="M426.163,293.959a16.664,16.664,0,0,0-.435-2.656,11.435,11.435,0,0,0-1.006-2.21l.066.075a10.994,10.994,0,0,0-.831-1.29c.091.139.146.276-.067,0a4.654,4.654,0,0,0-.543-.678c-.177-.187-.32-.376-.49-.55l-.38-.277a10.575,10.575,0,0,0-2.3-1.58,10.761,10.761,0,0,0-3.888-1.147,11.139,11.139,0,0,0-4.028.346l-.43.115-.4.146c-.255.1-.5.177-.715.279-.423.214-.789.366-1.031.525l.074-.054a11.772,11.772,0,0,0-2.535,1.963,10.826,10.826,0,0,0-3.048,7.051,7.041,7.041,0,0,0,.108,1.826,11.084,11.084,0,0,0,.4,1.454,11.353,11.353,0,0,0,.629,1.73c-.107-.29-.031-.208.065.012a14.716,14.716,0,0,0,.853,1.59c.467.848,1.649,2.836,2.944,4.7s2.644,3.641,3.152,4.312c.311.33.633.722.956,1.112l.742.883c.277.321.547.623.8.893l-.1-.092.383.433.756-.874.969-1.144c.418-.5.892-1.079,1.35-1.654.917-1.149,1.77-2.287,2.057-2.711l-.1.114a12.787,12.787,0,0,1,.976-1.265c-.125.036.308-.673.477-.94l.008.02c.257-.4.789-1.345,1.186-2.028l.023.05c.308-.583.94-1.653,1.152-2.084a19.325,19.325,0,0,0,2.115-6.292l.05.479a7.9,7.9,0,0,1-.168-1.544A2.326,2.326,0,0,1,426.163,293.959Zm-2.4,2.236a.863.863,0,0,0,.02-.124C423.779,296.155,423.772,296.2,423.767,296.2Zm.266-3.369a.1.1,0,0,1-.1-.066,5,5,0,0,0-.057,1.385c.061,2.489-1.123,4.536-2.362,6.6-.7,1.159-1.457,2.3-2.255,3.45-.052.041-.008-.021.031-.092-.466.7-.913,1.309-1.358,1.94a1.19,1.19,0,0,1-.255.229c.053-.04-.576.82-1.25,1.678l-.948,1.184-.327.4c-.023.027-.011.01-.016.015l.052.066c-.051.063-.057-.079-.071-.03a.288.288,0,0,1,0,.066c-.032.026-.03-.1-.071-.083l-.039-.055c-.053-.074-.1-.149-.08-.151-.123-.049-.258-.292-.42-.466-.069-.056.025.061.052.123l-.361-.411c-.118-.179-.122-.244.029-.067-.439-.562-1.709-2.2-2.9-3.9s-2.283-3.464-2.665-4.112c.057.192.318.578.35.768-.248-.32-.287-.515-.417-.644.015-.187-.411-.776-.452-1.094l-.108-.071-.057-.192a8.369,8.369,0,0,1-.831-1.723,8.9,8.9,0,0,1-.618-1.606c.01.064.029.252-.046.049.052-.047-.174-.543-.118-.646-.055-.2-.073-.8-.137-.6.01-.085.083-.715.089-.345a4.866,4.866,0,0,0,.024-.55l-.034.262a4.128,4.128,0,0,1,.1-.844c.043-.233.057-.44.091-.664-.03.08-.066.16-.091.243a2.719,2.719,0,0,1,.291-.879l-.083.416a6.215,6.215,0,0,1,.253-.836l.118-.368.155-.375-.091.183a8.115,8.115,0,0,1,1.336-2.275,10.848,10.848,0,0,1,1.922-1.8l-.3.116.486-.352c-.062.037-.148.312-.207.325a8.963,8.963,0,0,1,4.261-1.408,8.694,8.694,0,0,1,4.345.815c.41.233.036.12.028.127.516.235.26.03.673.284.108.078-.046.026-.113-.006a1.9,1.9,0,0,0,.369.208c-.215-.155-.082-.159-.155-.259.177.113.359.218.534.335l-.048.021a3.371,3.371,0,0,1,.836.514,9.126,9.126,0,0,1,2.047,2.5,1.685,1.685,0,0,1-.29-.361,4.445,4.445,0,0,1,.24.42c-.045-.12.02-.03.085.068s.11.214.077.12a15.744,15.744,0,0,1,.9,2.416A.091.091,0,0,1,424.033,292.826Z" transform="translate(-404.164 -283.594)" fill="#a95ea4"/>
  </g>
  <g id="Group_4730" data-name="Group 4730" transform="translate(5.706 5.004)">
    <path id="Path_1833" data-name="Path 1833" d="M431.835,302.371v0Z" transform="translate(-423.285 -297.701)" fill="#a95ea4"/>
    <path id="Path_1834" data-name="Path 1834" d="M425.818,298.333a1.931,1.931,0,0,0-.011-.352c.006-.017.015-.032.021-.048l-.01-.062-.051-.023c.008-.1.064.03.055-.165a3.652,3.652,0,0,1-.149-.509h.01a4.863,4.863,0,0,0-.393-.96l.034.03a4.591,4.591,0,0,0-.3-.583c.028.066.028.138-.055.015-.131-.253-.275-.388-.377-.573l-.172-.114a4.857,4.857,0,0,0-.9-.778,5.289,5.289,0,0,0-4.432-.7l.035-.018a5.307,5.307,0,0,0-2.524,1.568,4.937,4.937,0,0,0-1.239,2.712,2.883,2.883,0,0,0-.122.794c.027-.136.061-.088.054.017.038.739.012.053.12.788a5.676,5.676,0,0,0,.95,2.262,5.542,5.542,0,0,0,1.793,1.586,6.922,6.922,0,0,0,1.265.378l-.043.007a6.114,6.114,0,0,0,1.642.1,4.534,4.534,0,0,0,1.641-.452l-.065.019a4.465,4.465,0,0,1,.665-.291c-.078-.042.2-.287.3-.382l.007.018a6.453,6.453,0,0,0,.682-.778l.026.04c.161-.243.473-.681.567-.866a8.966,8.966,0,0,0,.811-2.682l0-.009a.524.524,0,0,0,.107.024,1.6,1.6,0,0,1,0,.249.8.8,0,0,0,.009-.354l-.065-.015,0-.013c.026-.058.051-.116.074-.176A1.725,1.725,0,0,1,425.818,298.333Zm-2-.166.032-.171c-.033.124-.043.033-.061-.016a.718.718,0,0,1-.046.138c.013.027.021-.014.034-.032,0,.067.041.172,0,.246-.037.124-.275.949-.316,1.091a3.312,3.312,0,0,1-1.4,1.737c-.025-.007-.007-.017.008-.036a1.523,1.523,0,0,1-.279.173,2.547,2.547,0,0,1-.282.138.168.168,0,0,1-.106-.032,1.367,1.367,0,0,1-.537.154,3.318,3.318,0,0,1-.408.029c-.113-.008-.191-.012-.2-.015l-.021.081c-.23-.017-.057-.1-.266-.108-.106.113-.335-.091-.42-.047,0-.008-.091-.048-.072-.08-.051.048-.1-.023-.171-.028-.029.008.009.023.019.046a1.025,1.025,0,0,1-.146-.041c-.045-.044-.041-.083.019-.062a3.231,3.231,0,0,1-1.007-.83,3.543,3.543,0,0,1-.588-1.171c-.032.063.025.179-.023.247-.084-.091-.029-.162-.088-.2.093-.067-.034-.246.072-.347l-.067-.022.029-.058c-.089-.476-.061-.109-.03-.536,0-.246-.057-.38.007-.51-.006.02-.059.066-.057,0,.057,0,.006-.181.067-.2.01-.064.094-.258,0-.218.046-.023.129-.191.118-.074a.545.545,0,0,0,.07-.154l-.055.064c.078-.2.192-.268.207-.424l-.067.053c.059-.117.125-.206.215-.2l-.06.117c.123-.172.2-.273.291-.429l-.044.046a2.121,2.121,0,0,1,.568-.615c.282-.236.622-.385.713-.469l-.116-.019a1.289,1.289,0,0,1,.173-.108c-.025.006-.038.2-.059.194a3.39,3.39,0,0,1,1.443-.15,2.8,2.8,0,0,1,1.338.5c.112.1-.028.091-.034.1.162.079.1-.007.221.088.027.033-.035.031-.058.024.058.035.1.087.116.069-.055-.066.019-.1.018-.161a1.281,1.281,0,0,1,.156.133l-.037.028c.029.034.174-.02.3.146a3.55,3.55,0,0,1,.594.879c-.027.007-.073-.05-.117-.108a.462.462,0,0,1,.055.148c.008-.1.091.115.082.048a.8.8,0,0,1,.2.365,2.224,2.224,0,0,0,.07.246c-.012.049-.021.1-.029.158a.333.333,0,0,0,.052-.1c.007.016.012.035.02.05a.33.33,0,0,1,0,.072C423.817,298.116,423.862,298.182,423.818,298.166Z" transform="translate(-415.239 -293.308)" fill="#a95ea4"/>
  </g>
</svg>
