<?xml version="1.0" encoding="utf-8"?>
<!-- Generator: Adobe Illustrator 27.2.0, SVG Export Plug-In . SVG Version: 6.00 Build 0)  -->
<svg version="1.1" id="Layer_1" xmlns="http://www.w3.org/2000/svg" xmlns:xlink="http://www.w3.org/1999/xlink" x="0px" y="0px"
	 viewBox="0 0 475.14 199.49" style="enable-background:new 0 0 475.14 199.49;" xml:space="preserve">
<style type="text/css">
	.st0{fill:#E7E61A;}
	.st1{fill:#E6048C;}
</style>
<g>
	<circle class="st0" cx="71.95" cy="127.15" r="70.78"/>
	<path class="st1" d="M151.3,114.37c0.97-1.5,2.19-2.81,3.41-4.09c3.54-3.73,7.18-7.37,10.77-11.06c2.93-3.01,5.74-6.13,7.99-9.7
		c1.93-3.04,3.53-6.23,2.81-10.03c-0.64-3.42-2.19-6.31-5.02-8.41c-2.11-1.57-4.47-2.78-6.66-4.23c-2.3-1.53-4.98-2.19-7.76-2
		c-2.87,0.19-5.54,1.14-8.04,2.61c-2,1.18-3.95,2.5-6.3,2.98c-1.28,0.26-2.58,0.13-3.88,0.35c-1.47,0.25-2.75,0.71-3.41,2.14
		c-0.41,0.88-0.63,1.84-0.65,2.82c-0.04,1.42-0.39,2.79-0.62,4.18c-0.32,1.91-0.67,3.82-1.09,5.72c-0.29,1.3-0.31,2.68-0.94,3.9
		c0.13,1.01-0.27,1.94-0.49,2.89c-1.23,5.5-1.8,11.13-4.37,16.33c-2.32,4.7-4.27,9.6-6.92,14.12c-3.44,5.88-7.43,11.38-12.54,15.95
		c-1.99,1.79-4.16,3.32-6.84,3.92c-0.66,0.15-1.32,0.13-1.98,0.01c-1.25,0.01-2.23-0.72-2.95-1.55c-2.52-2.91-3.63-6.43-4-10.22
		c-0.21-0.39,0.03-0.84-0.18-1.23c0-1.35,0-2.71,0.01-4.06c0.14-0.64,0.12-1.29,0.01-1.93c0.06-0.3,0.16-0.6,0.19-0.9
		c0.44-4.28,1.66-8.33,3.64-12.14c1.53-2.93,3.58-5.42,6.42-7.18c0.69-0.43,1.53-0.94,2.25-0.73c0.45,0.13,0.07,1.16,0.19,1.78
		c0.25,0.45-0.05,0.99,0.2,1.45c0.2,2.17,1.06,4.06,2.49,5.69c1.06,1.22,2.29,2.17,4,2.25c0.64,0.13,1.28,0.13,1.92,0
		c1.5-0.15,1.95-0.55,2.16-1.98c0.25-1.78,0.77-3.5,1.3-5.21c1.68-5.45,4.05-10.65,6.18-15.93c1.32-3.28,1.1-5.26-0.96-7.18
		c-2.6-2.4-6.75-2.9-10.15-0.8c-1.55,0.96-2.83,0.67-4.29,0.35c-0.56-0.13-1.12-0.13-1.68-0.01c-0.16,0.02-0.31,0.04-0.47,0.06
		c-0.37,0.25-0.83-0.03-1.21,0.2c-1.48,0.34-2.94,0.81-4.25,1.57c-2.92,1.67-5.3,3.98-7.32,6.62c-3.34,4.36-5.73,9.23-7.63,14.36
		c-1.97,5.32-3.24,10.8-4.01,16.41c-0.13,0.88-0.29,1.83-0.07,2.75c-0.25,0.63,0.06,1.31-0.19,1.94c-0.13,1.68-0.2,3.35,0,5.03
		c0.19,0.41,0.05,0.85,0.09,1.28c0.04,0.37-0.07,0.76,0.09,1.12c0.01,0.6-0.06,1.21,0.05,1.79c0.97,4.86,2.21,9.6,5.68,13.42
		c1.72,1.89,3.71,3.19,6.29,3.5c0.46,0.25,0.99-0.05,1.46,0.19c0.23,0,0.46,0.01,0.69,0.01c0.54-0.26,1.15,0.05,1.69-0.2
		c1.92-0.1,3.65-0.83,5.35-1.64c5.54-2.63,10-6.61,14.06-11.14c2.51-2.8,4.7-5.8,6.75-8.93c0.23-0.35,0.29-0.88,0.84-1.1
		c0.29,0.97-0.21,1.75-0.37,2.57c-0.87,4.31-1.72,8.63-2.61,12.95c-0.42,1.98-0.06,3.14,1.55,4.09c1.8,1.06,3.76,1.69,5.84,1.94
		c0.8-0.24,1.64,0.08,2.43-0.18c0.75-0.11,0.98-0.72,1.17-1.32c0.27-0.85,0.49-1.72,0.73-2.58c1.74-6.3,2.58-12.78,4.09-19.13
		c0.32-1.36,0.5-2.78,1.17-4.04c0.53-0.99,1.31-1.08,1.89-0.22c1.16,1.72,2.29,3.46,3.44,5.2c0.06,0.1,0.06,0.25,0.23,0.25
		c2.34,3.04,4.88,5.89,8.01,8.12c1.9,1.35,3.92,2.53,6.35,2.7c0.88,0.15,1.77,0.15,2.66,0c1.69-0.14,5.51-3.35,5.94-5.02
		c0.21-0.79-0.14-1.16-0.94-1.24c-1.31-0.12-2.53-0.47-3.58-1.3c-3.12-2.46-5.61-5.46-7.7-8.81c-1.23-1.95-2.61-3.83-3.12-6.15
		c-0.15-0.66-0.15-1.32,0-1.98C150.55,115.58,150.91,114.97,151.3,114.37z M149.19,101.98c-1.97,2.57-4.02,5.07-6.06,7.58
		c-0.22,0.28-0.52,0.83-0.86,0.65c-0.4-0.23-0.48-0.77-0.39-1.32c1.09-6.6,3.45-12.83,5.52-19.14c0.41-1.27,0.92-2.51,1.28-3.79
		c0.51-1.81,1.48-3.2,3-4.37c2.65-2.05,5.44-3.7,8.76-4.32c0.65-0.16,1.3-0.15,1.95-0.01c0.44,0.21,0.79,0.51,0.97,0.98
		c0.13,0.4,0.14,0.81,0,1.22c-1.53,5-4.5,9.2-7.39,13.47C153.86,96.05,151.49,98.99,149.19,101.98z"/>
	<path class="st1" d="M250.55,50.24c-0.57-1.99-2.09-2.81-3.97-3.17c-0.97-0.17-1.94-0.14-2.91-0.02c-0.71,0.1-1.44-0.07-2.12,0.24
		c-0.72-0.23-1.48,0.08-2.19-0.17c-1.36-0.42-2.71-0.84-4.06-1.25c-0.64-0.15-1.29-0.16-1.93,0c-1.54,0.41-2.28,1.66-2.85,2.94
		c-1.5,3.34-2.91,6.71-4.31,10.08c-1.62,3.87-3.18,7.76-4.79,11.64c-1.67,4.01-3.4,8-5.04,12.03c-1.8,4.38-3.53,8.79-5.28,13.19
		c-2.06,5.2-4.16,10.39-6.15,15.62c-0.9,2.35-1.96,4.66-2.54,7.14c-0.15,0.48-0.15,0.97,0,1.45c1.44,2.96,3.78,4.79,6.97,5.55
		c0.48,0.12,0.97,0.12,1.45,0c1.14-0.14,1.37-1.15,1.63-1.93c1.61-4.71,3.15-9.45,5.07-14.04c1.07-2.55,2.35-4.81,5.15-5.85
		c1.89-0.71,3.71-1.63,5.58-2.4c1.62-0.66,3.26-1.28,4.91-1.85c1.2-0.41,2.01-0.06,2.09,0.94c0.11,1.22,0.34,2.41,0.51,3.61
		c0.41,2.98,0.74,5.98,1.23,8.96c0.3,1.79,1.62,2.87,3.32,2.95c0.81,0.15,1.61,0.15,2.42,0c1.07-0.03,1.94-0.39,2.41-1.44
		c0.15-0.49,0.15-0.98,0-1.48c-0.09-0.41-0.11-0.84-0.15-1.25c-0.14-1.32-0.11-2.66-0.14-3.99c-0.2-0.42-0.05-0.87-0.1-1.31
		c-0.03-0.45,0.08-0.9-0.08-1.34c-0.02-0.64-0.05-1.27-0.07-1.91c-0.14-3.04-0.14-6.08,0-9.12c0.02-0.71,0.05-1.43,0.07-2.14
		c0.16-0.54,0.05-1.09,0.08-1.63v-1.38c0.04-0.44-0.09-0.89,0.1-1.32c0.02-0.31,0.04-0.63,0.06-0.95c0.14-0.48,0.11-0.96,0.02-1.45
		c0.15-2.07,0.3-4.13,0.45-6.2c0.22-0.39-0.04-0.85,0.18-1.23c0.02-0.39,0.04-0.78,0.05-1.17c0.24-0.39-0.03-0.85,0.2-1.23
		c0.01-0.64-0.04-1.28,0.05-1.91c0.45-3.22,0.89-6.44,1.43-9.64c0.69-4.12,1.4-8.24,3.16-12.08
		C250.7,51.22,250.69,50.74,250.55,50.24z M234.57,90.69c-2.01,0.9-4.2,1.13-6.31,1.67c-0.36,0.1-0.74,0.16-1.12,0.23
		c-0.47-0.22-1,0.06-1.47-0.18c-0.43-0.23-0.41-0.46-0.25-0.94c0.64-1.99,1.56-3.85,2.43-5.73c1.61-3.49,3.29-6.96,5.26-10.27
		c0.16-0.26,0.29-0.56,0.49-0.79c0.35-0.41,0.64-0.39,0.77,0.19c0.16,0.65,0.04,1.31,0.08,1.96c0.05,1.75-0.11,3.51,0.08,5.26
		c0.03,1.75,0.05,3.51,0.08,5.26C234.71,88.47,234.79,89.58,234.57,90.69z"/>
	<path class="st1" d="M261.9,115.42c-2.74-0.54-5.15-1.66-7.02-3.8c-0.29-0.33-0.36-0.64-0.39-1.06c-0.16-2.27,0.26-4.46,0.67-6.67
		c0.65-3.48,1.12-7,1.72-10.49c0.56-3.3,1.2-6.58,1.79-9.88c0.53-2.99,1.03-5.99,1.56-8.98c0.5-2.83,1.03-5.65,1.53-8.48
		c0.46-2.57,0.9-5.13,1.34-7.7c0.52-3.03,1.05-6.06,1.54-9.1c0.13-0.84,0.46-1.66,0.38-2.64c-1.58,0.45-3.12,0.82-4.61,1.33
		c-2.17,0.74-4.26,0.82-6.4-0.12c-2.16-0.94-4.29-1.91-5.93-3.67c-1.26-1.36-1.14-2.53,0.4-3.53c2.04-1.32,4.26-2.29,6.48-3.23
		c7.06-2.99,14.3-5.52,21.59-7.9c7-2.28,14.06-4.37,21.11-6.48c2.12-0.64,4.31-1.07,6.47-1.6c0.81-0.15,1.61-0.15,2.42,0
		c2.08,0.39,3.3,1.89,4.45,3.47c0.82,1.12,1.72,1.71,3.29,1.7c1.54-0.01,3.12,0.66,4.61,1.2c0.69,0.25,0.23,0.63-0.21,0.87
		c-1.77,0.95-3.7,1.51-5.6,2.12c-7.65,2.47-15.36,4.79-22.95,7.44c-2.18,0.76-4.31,1.65-6.42,2.6c-1.36,0.61-2.08,1.61-2.59,2.88
		c-2.59,6.55-4.37,13.34-5.96,20.18c-1.98,8.52-3.62,17.12-5.35,25.7c-1.31,6.54-2.62,13.09-4.25,19.56
		c-0.41,1.62-0.86,3.24-1.24,4.87c-0.14,0.61-0.42,1.09-0.96,1.42C262.88,115.57,262.39,115.56,261.9,115.42z"/>
	<path class="st1" d="M213.91,63.87c0.08,2.17-0.52,2.79-2.55,3.36c-5.3,1.49-10.56,3.13-15.51,5.62c-1.83,0.92-2.42,2.59-3.01,4.29
		c-1.76,5.04-3.32,10.15-4.52,15.36c-0.39,1.68,0.41,2.48,2.09,2.06c1.92-0.48,3.84-0.98,5.77-1.48c0.49-0.15,0.97-0.15,1.46,0
		c2.02,1.02,3.03,2.79,3.54,4.87c0.48,1.97-0.78,3.59-3.13,4.49c-4.36,1.67-8.49,3.85-12.58,6.08c-1.49,0.81-1.55,2.47-1.94,3.84
		c-0.52,1.87-1,3.77-1.32,5.71c-0.1,0.63-0.08,1.25-0.21,1.87c-0.16,0.57-0.14,1.13-0.01,1.7c0.23,0.74,0.54,0.98,1.46,0.76
		c3.42-0.82,6.51-2.54,9.9-3.43c0.94-0.24,1.88-0.48,2.82-0.72c0.57-0.15,1.15-0.15,1.72,0c2.89,0.61,5.94,4.31,6,7.11
		c0.02,1.06-0.46,1.51-1.34,1.77c-3.87,1.15-7.59,2.71-11.17,4.57c-2.71,1.4-5.39,2.88-7.81,4.78c-1.46,1.15-3.26,1.27-4.87,0.88
		c-3.09-0.75-5.83-2.32-8.26-4.43c-1.76-1.53-1.96-3.52-1.48-5.52c1.57-6.53,3.17-13.05,4.44-19.64c0.01-0.04,0-0.08,0.02-0.12
		c0.3-0.56,0.53-1.21,0.4-1.79c-0.14-0.65-0.98-0.62-1.47-0.97c-1.63-1.18-2.29-2.93-2.72-4.75c-0.16-0.68,0.53-1.15,1.26-1.28
		c1.31-0.24,2.61-0.51,3.92-0.72c0.53-0.08,0.67-0.3,0.77-0.83c0.71-3.87,1.35-7.76,1.92-11.66c0.51-3.5,0.88-7.01,1.19-10.52
		c0.2-0.5,0.05-1.03,0.1-1.54c-0.06-0.86,0.12-1.72-0.1-2.58c0.07-1.03-0.01-2.07-0.3-3.04c-0.27-0.92,0.17-1.28,0.81-1.64
		c1.79-0.97,3.72-1.6,5.65-2.2c3.86-1.2,7.76-2.26,11.63-3.43c5.33-1.61,10.67-3.14,16.06-4.53c0.3-0.08,0.6-0.17,0.89-0.26
		c0.65-0.15,1.29-0.15,1.94,0c0.94,0.62,0.97,1.2,0.11,2.15c-0.65,0.72-1.57,1.25-1.6,2.39c-0.19,0.69-0.04,1.4-0.09,2.1
		C213.86,63,213.72,63.45,213.91,63.87z"/>
	<path class="st1" d="M307.75,74.9c-0.69,2.1-2.73,2.34-4.35,3.05c-3.25,1.41-6.42,2.95-9.45,4.78c-0.68,0.41-0.67,1.18-0.88,1.83
		c-0.83,2.55-1.57,5.11-1.68,7.82c-0.14,0.49-0.15,0.98,0,1.47c0.31,0.52,0.63,0.67,1.32,0.5c2.72-0.68,5.19-2.07,7.88-2.81
		c1.48-0.41,2.93-1.17,4.55-0.66c2.44,0.77,3.86,2.53,4.75,4.82c0.07,0.18,0.17,0.35,0.25,0.52c0.15,0.4,0.14,0.81,0.01,1.22
		c-0.27,0.51-0.66,0.78-1.23,0.97c-5.4,1.79-10.64,3.98-15.21,7.41c-3.38,2.54-6.44,1.36-9.48-0.4c-1.33-0.77-2.67-1.63-3.57-2.99
		c-0.34-0.52-0.55-1.03-0.56-1.63c-0.13-0.4-0.12-0.8-0.01-1.21c0.42-3.06,1.41-6,2.03-9.02c0.69-3.35,1.48-6.68,2.27-10.02
		c0.12-0.51-0.13-0.62-0.46-0.76c-1.66-0.71-2.47-2.12-3-3.73c-0.38-1.16-0.05-1.65,1.18-1.9c0.66-0.13,1.31-0.43,1.96-0.4
		c1.39,0.06,1.89-0.6,2.07-1.89c0.5-3.61,1.2-7.19,1.63-10.8c0.23-1.95,0.61-3.89,0.53-5.88c-0.02-0.45,0.16-0.91,0.25-1.37
		c0.2-0.56,0.04-1.13,0.09-1.69c0-0.44,0-0.89,0-1.33c-0.03-0.43,0.08-0.87-0.08-1.3c-0.72-3.16-0.79-2.89,2.08-3.91
		c4.09-1.46,8.27-2.72,12.44-3.95c4.5-1.33,9.04-2.56,13.58-3.78c0.94-0.25,1.87-0.63,2.93-0.37c1.08,0.28,1.28,0.73,0.56,1.62
		c-0.47,0.58-1.16,0.96-1.48,1.69c-0.08,0.19-0.18,0.34-0.12,0.55c0.12,0.72,0.12,1.44,0,2.16c-0.01,0.15-0.02,0.3-0.02,0.45
		c0.15,0.5,0.15,1,0,1.5c-0.03,1.33-1.19,1.39-2.02,1.61c-4.23,1.16-8.35,2.6-12.38,4.32c-2.02,0.86-2.97,2.47-3.63,4.44
		c-1.43,4.26-2.75,8.54-3.75,12.92c-0.14,0.62-0.15,1.19,0.38,1.75c0.56,0.59,1.04,0.18,1.51,0.06c1.66-0.42,3.29-0.94,4.95-1.37
		c0.73-0.19,1.4,0.05,1.98,0.57c1.05,0.95,1.83,2.07,2.16,3.46C307.89,73.77,307.9,74.33,307.75,74.9z"/>
	<path class="st1" d="M350.93,10.66c-0.99,2.99-1.93,6.01-2.99,8.98c-3.23,9.01-6.52,17.99-9.51,27.08
		c-1.99,6.08-3.67,12.25-5.22,18.46c-0.3,1.21-0.51,2.44-0.77,3.67c-0.33,1.57-1.35,2.39-2.89,2.65c-0.56-0.13-1.13-0.13-1.69,0
		c-1.32-0.12-2.48-0.69-3.5-1.46c-2.13-1.61-1.74-3.73-1.19-5.95c0.5-1.99,0.75-4.05,1.1-6.08c0.39-2.26,0.81-4.52,1.17-6.79
		c0.29-1.86,0.49-3.73,0.75-5.58c0.29-2.05,0.64-4.09,0.92-6.14c0.21-1.51,0.33-3.04,0.53-4.55c0.29-2.25,0.64-4.49,0.93-6.74
		c0.2-1.6,0.32-3.2,0.51-4.8c0.29-2.41,0.7-4.81,0.9-7.22c0.08-1.02,0.31-2.03,0.29-3.06c-0.01-0.59-0.03-1.19,0.27-1.73
		c0.15-0.49,0.13-0.97,0.01-1.46c0.07-0.63,0.15-1.26,0.22-1.89c0.16-0.49,0.15-0.98,0.01-1.47c0.67-3.24,3.2-4.05,5.96-4.57
		c0.88-0.12,1.77-0.12,2.65,0c2.01,0.43,4.05,0.61,5.99,1.44c2.71,1.16,4.92,2.69,5.56,5.79C351.06,9.69,351.07,10.17,350.93,10.66z
		"/>
	<path class="st1" d="M324.06,76.78c2.84,0.42,5.6,0.99,7.97,2.8c1.26,0.96,1.62,2.26,1.8,3.65c0.09,0.66,0.25,1.31,0.32,1.96
		c0.12,0.88,0.13,1.76-0.01,2.64c-0.33,1.92-0.5,3.89-1.52,5.6c-1.22,2.05-2.93,3.44-5.46,3.47c-0.56-0.14-1.12-0.14-1.69,0
		c-3.7-0.18-8.43-2.51-9.45-6.36c-0.16-0.6-0.03-1.18-0.18-1.75c-0.12-0.56-0.12-1.12,0-1.69c0.12-3,0.71-5.85,2.35-8.45
		c0.77-1.22,1.81-1.79,3.19-1.88C322.27,76.64,323.17,76.64,324.06,76.78z"/>
	<path class="st1" d="M393.52,66.81c-0.11-0.22-0.23-0.35,0.08-0.56c1.21-0.77,1.63-2.03,1.95-3.33c0.14-0.65,0.14-1.29,0-1.94
		c-0.43-2.57-1.99-3.9-4.57-4.1c-2.78-0.19-5.57-0.02-8.36-0.09c-0.56-0.01-0.66,0.28-0.65,0.75c0.04,4.74-0.07,9.47,0.06,14.21
		v0.01c0.02,0,0.05,0.01,0.07,0.01c1.42,0.24,2.86,0.1,4.28,0.09c0.07-0.01,0.15-0.01,0.22-0.01c0-0.02,0.01-0.03,0.01-0.05
		c0.01-0.02,0.01-0.04,0.01-0.06c0.01-0.01,0.01-0.02,0.01-0.03c0.34-1.49-0.04-3.02,0.21-4.51c0.03-0.01,0.05-0.01,0.08-0.02
		c0.02,0,0.03-0.01,0.05-0.01c0.53-0.11,1.05-0.16,1.58,0.06c0.56,1.52,1.13,3.05,1.69,4.57c1.73,0.2,3.47,0.05,5.2,0.08
		c0.23,0.01,0.36-0.11,0.38-0.35C395.06,69.96,394.29,68.38,393.52,66.81z M389.77,63.18c-0.96-0.01-1.92-0.03-2.88-0.04
		c0.01-0.79,0.02-1.58,0.03-2.37c0.63-0.01,1.26,0.01,1.89-0.03c0.64-0.04,1.25,0.08,1.43,0.73
		C390.42,62.07,390.52,62.78,389.77,63.18z"/>
	<path class="st1" d="M460.52,94.55c-1.53-4.38-3.06-8.77-4.58-13.16c-2.08-0.28-4.15-0.16-6.23-0.06
		c-1.91,4.98-3.57,10.04-5.24,15.1c1.9,0.24,3.81,0.27,5.71-0.03c0.02-0.73,0.14-1.45,0.48-2.11c1.44-0.15,2.88-0.22,4.32,0.03
		c0.18,0.7,0.35,1.4,0.53,2.1c1.9,0.26,3.8,0.28,5.7-0.01C460.98,95.79,460.73,95.18,460.52,94.55z M452.67,85.92
		c0.1,0,0.2,0.01,0.3,0.01c0.35,1.51,0.69,3.02,1.04,4.53h-2.33C451.81,88.9,452.31,87.43,452.67,85.92z"/>
	<path class="st1" d="M377.29,63.47c-0.74-2.18-1.45-4.36-2.18-6.54c-0.11-0.23-0.29-0.37-0.56-0.36c-1.97,0.04-3.94-0.12-5.91,0.08
		c-1.75,5.03-3.5,10.06-5.24,15.09c1.9,0.25,3.81,0.25,5.72,0c0.05-0.73,0.15-1.46,0.55-2.1c1.41-0.24,2.82-0.23,4.23-0.01
		c0.17,0.71,0.35,1.41,0.53,2.11c1.91,0.25,3.82,0.25,5.72,0C379.2,68.98,378.23,66.23,377.29,63.47z M370.61,65.3
		c0.35-1.42,0.71-2.84,1.06-4.26c0.59,1.55,1.15,3.08,1.27,4.73C372.15,65.65,371.24,66.16,370.61,65.3z"/>
	<path class="st1" d="M420.23,56.4c1.4,0.47,2.95,0.26,4.28,1.01c0.21,1.42,0.33,2.84-0.06,4.25c-1.46-0.42-2.94-0.76-4.44-0.94
		c-0.57-0.15-1.15-0.13-1.72-0.01c-0.41,0.16-0.99,0.16-0.93,0.83c0.07,0.73,0.67,0.8,1.21,0.89c1.46,0.24,2.96,0.26,4.39,0.73
		c1.37,0.45,1.97,1.25,2.08,2.67c0.06,0.77,0.08,1.52,0.07,2.29c-0.02,2.03-2.48,3.9-4.37,3.92c-0.46,0.25-1-0.05-1.46,0.2
		c-1.86,0.14-3.69-0.01-5.5-0.46c-0.66-0.16-1.06-0.42-0.99-1.24c0.09-1.1,0.02-2.22,0.02-3.42c1.63,0.3,3.15,0.94,4.79,0.88
		c0.48,0.14,0.96,0.14,1.45,0.01c0.67,0.01,1.33-0.39,1.3-0.91c-0.03-0.5-0.71-0.74-1.38-0.85c-1.25-0.2-2.53-0.22-3.77-0.63
		c-1.4-0.46-2.26-1.27-2.59-2.67c0.24-0.96-0.1-1.95,0.18-2.9c0.11-1.55,1.44-2.88,3.32-3.32c0.57-0.13,1.15-0.2,1.73-0.3
		C418.62,56.26,419.43,56.26,420.23,56.4z"/>
	<path class="st1" d="M397.9,85.41c-0.55,0.04-0.94,0.35-0.92,0.88c0.02,0.65,0.64,0.73,1.12,0.81c1.15,0.2,2.31,0.32,3.46,0.49
		c2.19,0.32,2.84,0.94,3.34,3.11c0.14,0.64,0.13,1.28,0.01,1.92c-1.14,3.22-2.7,4.31-6.15,4.31c-0.6,0-1.2-0.02-1.79-0.03
		c-0.49-0.16-0.98-0.12-1.47-0.02c-0.94-0.23-1.89-0.46-2.83-0.7c-0.23-1.49-0.26-2.99,0.01-4.48c1.45,0.57,2.95,0.93,4.51,0.96
		c0.56,0.12,1.12,0.13,1.69-0.01c0.22-0.08,0.43-0.19,0.65-0.25c0.35-0.09,0.57-0.31,0.55-0.66c-0.02-0.35-0.27-0.54-0.63-0.61
		c-0.8-0.14-1.59-0.37-2.39-0.42c-0.99-0.06-1.89-0.35-2.81-0.68c-1.28-0.46-1.79-1.42-1.89-2.69c-0.14-0.72-0.13-1.44-0.01-2.16
		c0.05-2.54,1.87-3.43,3.47-3.78c0.6-0.13,1.21-0.28,1.83-0.33c0.64-0.12,1.29-0.13,1.93,0.01c1.5,0.4,3.12,0.25,4.54,1.03
		c0.28,1.21,0.07,2.43,0.12,3.64c0.01,0.39-0.16,0.61-0.59,0.4c-1.35-0.25-2.7-0.5-4.06-0.76C399.04,85.26,398.47,85.25,397.9,85.41
		z"/>
	<path class="st1" d="M382.59,87.09c1.79,0.01,3.57,0.05,5.36,0.01c0.67-0.01,0.86,0.18,0.87,0.86c0.06,2.99,0.08,2.99-2.89,2.99
		c-1.11,0-2.22,0.02-3.33,0.03c-0.27,0.47-0.18,0.94-0.05,1.42l0.01,0.01c1.89,0.22,3.79,0.03,5.69,0.1
		c0.43,0.02,0.87-0.11,1.28,0.11v0c0.17,1.27,0.22,2.55-0.02,3.82l0.02,0.02c-2.62,0.25-5.24,0.07-7.86,0.1
		c-1.31,0.01-2.62,0.13-3.92-0.09c-0.21-2.62-0.05-5.25-0.08-7.87c-0.03-2.07,0.01-4.14-0.02-6.21c-0.01-0.62,0.09-0.94,0.84-0.93
		c3.47,0.03,6.93,0.02,10.4,0.01c0.45,0,0.8,0.05,0.76,0.63c-0.08,1.1,0.16,2.22-0.13,3.31l0.02,0.02
		c-2.19,0.25-4.39,0.04-6.59,0.11C382,85.88,382.48,86.52,382.59,87.09z"/>
	<path class="st1" d="M445.93,81.86c-2.02,4.93-4.04,9.86-6.06,14.79c-1.42,0.26-2.85,0.26-4.27,0c-0.96-2.2-1.94-4.38-2.87-6.59
		c-0.9-2.13-1.76-4.28-2.63-6.43c-0.2-0.5-0.36-1.03-0.54-1.54c-0.17-0.42,0.02-0.62,0.43-0.6c1.54,0.06,3.08-0.18,4.61,0.14
		c1.05,2.14,1.55,4.47,2.4,6.68c0.18,0.48,0.38,0.93,0.73,1.59c1.02-2.86,1.97-5.56,2.93-8.27c1.68-0.32,3.37-0.09,5.05-0.12
		C445.87,81.51,445.94,81.68,445.93,81.86z"/>
	<path class="st1" d="M374.16,91.15c-1.9,0.02-3.81,0.04-5.71,0.07c-0.35,1.27-0.05,2.57-0.16,3.85c-0.04,0.46,0.13,0.94-0.13,1.38
		l0.02,0.02c-1.54,0.18-3.07,0.19-4.61-0.01c-0.11-4.95-0.12-9.91,0.01-14.86c2.45-0.25,4.91-0.07,7.36-0.1
		c1.39-0.02,2.78-0.07,4.16,0.04c0.24,1.3,0.22,2.6,0.02,3.9l0.01-0.01c-2.12,0.29-4.24,0.05-6.36,0.13
		c-0.94,0.44-0.39,1.15-0.32,1.77c1.9,0.02,3.81,0.04,5.71,0.06C374.37,88.64,374.37,89.9,374.16,91.15z"/>
	<path class="st1" d="M401.77,71.74c-0.02-3.5-0.04-7-0.05-10.5c-0.97-0.31-1.97-0.05-2.95-0.14c-0.47-0.04-0.95,0.13-1.4-0.14
		c-0.04-1.37-0.18-2.74,0.07-4.1c4.46-0.12,8.93-0.08,13.39-0.02c0.32,1.36,0.11,2.73,0.12,4.1c-0.98,0.35-2,0.07-2.99,0.17
		c-0.46,0.04-0.93-0.14-1.37,0.13c-0.02,3.5-0.04,7-0.05,10.5C404.95,71.98,403.36,71.98,401.77,71.74z"/>
	<path class="st1" d="M420.44,81.63c0,1.34,0.01,2.68,0.01,4.01c-1.13,0.34-2.29,0.13-3.43,0.13c-0.79,0-1.02,0.23-1.01,1.02
		c0.05,2.83,0.02,5.67,0.01,8.5c0,0.39,0.11,0.8-0.12,1.17l0.01-0.01c-1.52,0.23-3.05,0.16-4.57,0.04c-0.22-3.15-0.03-6.3-0.11-9.44
		c-0.01-0.41,0.2-0.88-0.2-1.24c-1.43-0.12-2.88,0.17-4.3-0.17c-0.1-1.15-0.01-2.3-0.05-3.45c-0.02-0.49,0.15-0.71,0.68-0.71
		c4.29,0.02,8.59-0.02,12.88,0.03C420.3,81.51,420.37,81.59,420.44,81.63z"/>
	<path class="st1" d="M475.12,92.4c0.01,1.34,0.01,2.68,0.02,4.03c-0.64,0.31-1.32,0.14-1.99,0.14c-2.94,0.02-5.88,0.02-8.82,0
		c-0.38,0-0.8,0.14-1.15-0.14c0-4.93,0.01-9.87,0.01-14.8c1.58-0.23,3.16-0.23,4.74,0c0.01,3.49,0.03,6.99,0.04,10.48
		c1.15,0.34,2.34,0.08,3.5,0.16C472.69,92.35,473.91,92.12,475.12,92.4z"/>
	<path class="st1" d="M427.39,96.43c-1.5,0-3.01-0.01-4.51-0.01c0-4.93,0.01-9.86,0.01-14.79c1.5-0.01,2.99-0.01,4.49-0.02
		C427.38,86.55,427.39,91.49,427.39,96.43z"/>
</g>
</svg>
