<svg xmlns="http://www.w3.org/2000/svg" width="15.024" height="16.662" viewBox="0 0 15.024 16.662">
  <g id="Group_4767" data-name="Group 4767" transform="translate(0.15 0.157)">
    <path id="Path_1861" data-name="Path 1861" d="M995.595,371.954a2.083,2.083,0,0,0,.558-.2l-.25.092C995.808,371.887,995.7,371.922,995.595,371.954Z" transform="translate(-984.481 -356.591)" fill="#904d94" stroke="#904d94" stroke-width="0.3"/>
    <path id="Path_1862" data-name="Path 1862" d="M995.562,372.677l0,0,.007,0Z" transform="translate(-984.453 -357.312)" fill="#904d94" stroke="#904d94" stroke-width="0.3"/>
    <path id="Path_1863" data-name="Path 1863" d="M956.387,314.792l-.13-.11-.569-.486.1.071-.185-.16-.18-.149c-.13-.106-.275-.226-.409-.346.076.069.135.138-.032,0-.31-.275-.535-.444-.757-.65l-.236-.168-1.49-1.234-.214-.177-.108-.089-.027-.023c-.009,0-.017.016-.025.023l-.05.051-.4.416-.264.272c-.067.071-.138.144-.221.223l-.487.472a4.894,4.894,0,0,1-.431.4.565.565,0,0,1-.349.129,1.148,1.148,0,0,1-.44-.125,2.522,2.522,0,0,1-.456-.274c-.153-.116-.3-.233-.433-.351a9.2,9.2,0,0,1-1.148-1.216l.036.041c-.167-.208-.35-.451-.54-.725a7.679,7.679,0,0,1-.54-.9c-.084-.164-.163-.335-.236-.511a1.415,1.415,0,0,1-.12-.452.567.567,0,0,1,.083-.349,1.389,1.389,0,0,1,.323-.354l.959-.821.574-.493.422-.361c.008-.007.018-.015.025-.022l-.02-.029-.04-.057-.079-.114-.157-.225-1.3-1.845c-.187-.306-.471-.707-.678-1.016.111.175.059.126-.032-.008a5.24,5.24,0,0,0-.351-.494.484.484,0,0,1-.064-.078l-.146-.2-.34-.481-.032-.045c-.006,0-.01-.024-.018-.015l-.024.016-.1.065-.225.144-.444.287c-.222.147-.475.31-.763.518a3.914,3.914,0,0,0-.433.386,5.178,5.178,0,0,0-.4.452,4.941,4.941,0,0,0-.646,1.1,6.022,6.022,0,0,0-.456,2.373,7.057,7.057,0,0,0,.2,1.594c.1.324.212.681.347,1.027a9.951,9.951,0,0,0,.435.96l-.034-.055a15.827,15.827,0,0,0,1.361,2.245,20.461,20.461,0,0,0,1.71,2.046l-.068-.079c.478.478.392.438.771.82-.03-.073.41.311.585.45h-.011a11.249,11.249,0,0,0,1.36.936l-.028.005c.2.112.5.272.782.406a7.624,7.624,0,0,0,.724.3,5.793,5.793,0,0,0,1.351.332,4.133,4.133,0,0,0,1.6-.126,3.023,3.023,0,0,0,.332-.071,3.286,3.286,0,0,0,.327-.1l.452-.157h0a1.731,1.731,0,0,0,.23-.131,2.49,2.49,0,0,0,.276-.222v0a2.391,2.391,0,0,0,.415-.387c.194-.195,0,.042.227-.2.151-.18.33-.428.5-.63v.006c.1-.124.189-.237.266-.343l.157-.225.184-.275.182-.28.046-.07.023-.035.012-.018C956.4,314.8,956.39,314.8,956.387,314.792Zm-1.1.24c-.014.023-.037.056-.063.092l-.133.18c-.2.253-1.577,1.392-1.739,1.6,0,.008-.015.022-.038.043l-.316.115-.218.078c-.267.071-.389.114-.375.091.124-.023.246-.057.367-.092-.269.069-.083.013.014-.033a2.937,2.937,0,0,1-.309.076c-.051.021.04,0,.083-.009a2.2,2.2,0,0,1-.525.109c-.282.022-.02-.026-.349-.012a5.49,5.49,0,0,1-2.531-.714,10.042,10.042,0,0,1-2.229-1.66c-.026-.036.011,0,.054.035-.422-.392-.777-.781-1.141-1.176a1.414,1.414,0,0,1-.135-.194,13.993,13.993,0,0,1-.923-1.117c-.225-.3-.443-.615-.6-.859s-.258-.414-.262-.425l-.047-.014c-.29-.5-.054-.164-.316-.627a7.541,7.541,0,0,1-.471-.958c.005,0-.092-.238-.07-.229a2.127,2.127,0,0,1-.154-.4c-.025-.053.007.044.013.088-.044-.116-.082-.233-.12-.351-.031-.142-.025-.18.018-.03a6.533,6.533,0,0,1-.22-1.263,5.3,5.3,0,0,1,.224-1.912,4.1,4.1,0,0,1,.952-1.608c.1-.1.194-.192.287-.276.061-.052.176-.133.265-.195l.457-.309c-.125.057-.39.25-.5.293.217-.171.342-.224.436-.307a.52.52,0,0,0,.133-.061c.052-.029.153-.092.13-.076.008,0,.02-.006.011.028a.127.127,0,0,1,.012-.028.063.063,0,0,1-.006.02h0s0,0,0,0l.029.04.1.135.129.178.1.133c.03.046.047.079.367.545.376.535.581.769.778,1.076-.031-.045-.1-.173,0-.037,0,.037.27.361.3.443.1.134.4.578.322.41.02.042.1.163.147.245.018.028.008.016.011.023a.006.006,0,0,1,0,.005h-.008s0,0-.014-.016l.013.019,0,.006.006.01a.055.055,0,0,0,.017.017.173.173,0,0,0,0-.021c.04.032-.006.047-.021.059.018-.016-.085.071-.14.12s-.125.113-.187.176l.158-.118a4.014,4.014,0,0,1-.558.441l.244-.221-.514.444-.224.2c-.078.068-.175.151-.267.244.046-.042.093-.086.139-.124a3.226,3.226,0,0,0-.264.273,1.719,1.719,0,0,0-.327.571,1.59,1.59,0,0,0-.033.833,2.452,2.452,0,0,0,.117.381c.047.123.093.222.144.333a8.037,8.037,0,0,0,.658,1.147c.217.313.4.54.487.644l-.13-.216q.144.183.295.36c-.033-.044-.2-.129-.217-.172a11.415,11.415,0,0,0,.911,1.079,8.828,8.828,0,0,0,.772.715,3.766,3.766,0,0,0,1.012.635,1.64,1.64,0,0,0,.665.134,1.314,1.314,0,0,0,.672-.217,2.579,2.579,0,0,0,.457-.39l.339-.325c.215-.207.406-.386.574-.561l.137-.139.045-.042c.018-.025.029.014.033.017s0,.014,0,.017-.018,0-.018.011c.034.017.045.021.053.021a.034.034,0,0,1,.016.005l.014.01.084.07c.076.068-.027,0-.074-.032a2.822,2.822,0,0,0,.255.2c-.152-.137-.067-.106-.122-.177l.366.308-.028,0a5.285,5.285,0,0,1,.595.44l1.848,1.542a.022.022,0,0,1-.015,0,.048.048,0,0,1-.013-.006l-.036-.026-.185-.14.144.12.071.061a.14.14,0,0,1,.017.019c-.033-.054.093.06.064.025a.3.3,0,0,1,.072.048C955.317,314.981,955.3,315.007,955.286,315.032Z" transform="translate(-941.68 -301.74)" fill="#904d94" stroke="#904d94" stroke-width="0.3"/>
  </g>
</svg>
