<svg xmlns="http://www.w3.org/2000/svg" width="38.367" height="33.427" viewBox="0 0 38.367 33.427">
  <g id="Group_4878" data-name="Group 4878" transform="translate(0 16.514) rotate(-30)">
    <path id="Path_1835" data-name="Path 1835" d="M.357,0A2.838,2.838,0,0,0,0,1.205,7.286,7.286,0,0,1,.357,0Z" transform="translate(27.706 8.281)" fill="#000"/>
    <path id="Path_1836" data-name="Path 1836" d="M0,.007.006,0,0,.015Z" transform="translate(28.063 8.265)" fill="#000"/>
    <path id="Path_1837" data-name="Path 1837" d="M29.59,6.479a4.4,4.4,0,0,1,1.049-.486l.289-.07L31,5.9l.171-.017.364-.033c.487-.052.972-.067,1.459-.093q.016-2.841.032-5.668L23.97.066c-.109-.021.021-.02.16-.029C22.68.05,22.51.061,21.189.073A3.254,3.254,0,0,1,20.615,0c.109.021-1.71.032-3.57.036l-3.823,0L13.13.123c-1.424,0-.415-.1-1.732-.08C10.883.168,14.2.03,13.745.1a3.762,3.762,0,0,1-.594-.053,6.593,6.593,0,0,1-1.07.033C11.934.1,12.19.1,12.3.118l-.931.024C11,.12,10.915.08,11.31.072L.008.016C.006,2.1,0,4.1,0,5.877l1.14.062.549.048.268.023.131.012.048.013c.127.035.254.06.369.1l.319.116a4.4,4.4,0,0,1,.892.52,6.123,6.123,0,0,0-.9-.635,2.244,2.244,0,0,1,.56.266c.137.081.235.153.34.208a5.524,5.524,0,0,0,.48.528,1.84,1.84,0,0,1,.446.717l.138.093.075.252A3.669,3.669,0,0,1,5.2,9.215a1.27,1.27,0,0,1,.043.294,4.229,4.229,0,0,1-.1,1.179,4.516,4.516,0,0,1-.493,1.3A2.762,2.762,0,0,1,4,12.772c.073-.065.3-.215.08.008-.06.01-.629.56-.807.571a5.018,5.018,0,0,1-.657.3c-.229.09-.4.135-.217.136a1.914,1.914,0,0,0-.238.034.96.96,0,0,1-.142.012l-.19.012-.36.022c-.442.024-.682.032-.028-.043-.46.048-.911.047-1.309.073-.007.247,0,.492.006.7.007-.226.007-.461.021-.674l.252-.007-.245.013C.159,14.976.153,15.792.147,16.522l0,.737c0,.374.014.742.033,1.114l.032-.9c0,.736,0,1.407,0,1.968A10.326,10.326,0,0,1,1.4,19.5l-1.278.021,0-.251v.254L2.9,19.519c.473-.007.924-.019,1.444-.04l-.385,0c1.376-.08,8.577-.147,9.845-.248l-.584-.063-3.9-.053c-.129,0,4.463.2,4.355.183,2.337-.006,8.4-.055,10.554-.012.87.035.156.1.146.11,1.06-.024.457-.067,1.358-.062.246.012-.05.049-.189.058a6.32,6.32,0,0,0,.791-.015c-.493-.023-.284-.1-.493-.151L27,19.231l-.051.049a12,12,0,0,1,1.794-.108l3.9.012c0-1.432,0-2.862,0-4.24a2.289,2.289,0,0,1,.037.446c.008.254.018.574.028.9v-.723c0-.272,0-.541.015-.751-.04.558-.027-.267-.055-.623-.2-.008-.291-.011-.1.007-.314-.006-.63,0-.947-.026l-.479-.039-.231-.022-.122-.028a3.634,3.634,0,0,1-.942-.338A5.282,5.282,0,0,1,28.4,12.624c-1.369-1.47-.551-3.95-.551-3.95l-.042-.044,0-.009.037.053c.041-.16.105-.314.159-.47.072-.131.127-.248.173-.347l.133-.232c.064-.124.1-.169.11-.139a4.624,4.624,0,0,0-.4.709c.272-.532.113-.142.043.07a3.289,3.289,0,0,1,.339-.587c.043-.109-.06.062-.118.135a3.013,3.013,0,0,1,.671-.931C29.418,6.48,29.03,6.9,29.59,6.479Zm-3.119.4a6.523,6.523,0,0,0-.769,1.67c-.015.089-.021.18-.032.271a3.37,3.37,0,0,0-.094,2.664,5.5,5.5,0,0,0,.392,1.1c.171.4.311.656.311.657.023.05.081.155.221.381A8.066,8.066,0,0,0,28.173,15.2h-.017a5.562,5.562,0,0,0,1.815.855l.421.1c.026,0,.09.021.084.018l0,0,.009,0a.1.1,0,0,1,.044-.008.055.055,0,0,1-.012.036L30.5,16.2c-.008.008-.012.012-.012.015v.005l0,.238c0,.173,0,.356,0,.543a.01.01,0,0,1-.014.006c.011.007.052,0,.059.037a.072.072,0,0,0-.013.015.271.271,0,0,0-.047-.007l-.009,0c-.006,0,.008,0-.015,0l-.112,0-.446-.018-.7.055-19.651.076.137-.009c-2.948.01-2.78.026-7.22.04q0-.6-.009-1.149a.73.73,0,0,0,.109-.013l.028-.006L2.668,16l.4-.105a6.092,6.092,0,0,0,1.48-.655A6.2,6.2,0,0,0,6.575,13.27a5.829,5.829,0,0,0,.787-1.561,6.846,6.846,0,0,0,.293-1.763c-.053.6-.079.389-.055-.074a6.006,6.006,0,0,0-.166-1.453,1.449,1.449,0,0,0-.086-.272c-.018-.026-.021-.058-.1-.272A6.451,6.451,0,0,0,6.6,6.55,6.484,6.484,0,0,0,4.832,4.716a6.388,6.388,0,0,0-1.553-.769,4.227,4.227,0,0,0-.446-.127L2.6,3.762a.571.571,0,0,0-.07-.013,1.494,1.494,0,0,0-.208-.019.905.905,0,0,1-.008-.194l0-.511c0-.228,0-.46,0-.693l8.457.065c1.506-.08-1.6-.019-.129-.07l-.149.019L22.9,2.361l-.248-.011a8.5,8.5,0,0,1,1.543.065,6.554,6.554,0,0,1,1.734-.147l-.02.019c.791-.015,2.583-.093,3.89-.105l-.051.049.8-.027.384-.008v1c0,.282-.006.306-.01.394a.941.941,0,0,1-.025.238c-.072,0-.144,0-.215.006l-.106.011s-.09.02-.145.033l-.189.046a5.742,5.742,0,0,0-1.5.607A5.874,5.874,0,0,0,26.471,6.875Z" transform="translate(0 0)" fill="#000"/>
    <path id="Path_1838" data-name="Path 1838" d="M0,.014C.026.01.037.006.034,0,.007,0,0,.009,0,.014Z" transform="translate(20.461 2.945)" fill="#000"/>
    <path id="Path_1839" data-name="Path 1839" d="M0,0H0Z" transform="translate(20.461 2.959)" fill="#000"/>
    <path id="Path_1840" data-name="Path 1840" d="M1.312,1.016h0C1.346,1,1.275,1,1.3.983h.009c.016,0-.005-.013.012-.021-.005,0-.026,0-.029,0,.018-.009,0-.015.022-.021L1.29.935A1.3,1.3,0,0,0,1.251.751h0C1.242.7,1.244.606,1.206.558c.027-.008.02-.018.028-.026-.011,0-.03,0-.029,0,0-.024-.019,0-.031-.026s0-.136.027-.161C1.161.331,1.191.314,1.166.3h.009C1.16.288,1.2.208,1.183.192l-.006,0C1.153.18,1.2.182,1.21.171A.117.117,0,0,1,1.136.155h.01C1.138.148,1.1.132,1.093.121h.024C1.092.111,1.1.093,1.1.086s.053-.04.021-.062L1.19.01l-.007,0S.337-.014.157.014H.132l0,.006C.124.026.152.029.127.029L.13.02C.124.027.11.022.1.019A.024.024,0,0,1,.084.027.029.029,0,0,0,.1.025C.108.028.131.034.12.038S.08.038.077.047A.255.255,0,0,0,.035.172a.024.024,0,0,1-.014,0C.032.184.028.2.039.207A.215.215,0,0,1,0,.212c.02,0,.022.065.017.066H.064c0,.013-.051,0-.04.015C.086.3.017.314.05.318c0,0-.007.006-.027.006C.058.325.032.329.04.333a.086.086,0,0,0,.02,0L.073.339a.061.061,0,0,1-.035,0C.026.361-.006.465.011.489.037.486.019.478.059.476.082.482.052.485.075.488.015.49.061.5,0,.506l.034,0-.021,0C.049.538.03.517.023.541S.075.562.058.569a.057.057,0,0,1,.03,0C.058.569.109.578.079.58c0,0,0,.015.041.011C.1.593.091.6.073.6c0,0-.007.007,0,.009L.086.6C.092.614.06.62.1.628l.016,0C.116.63.119.636.079.639L.066.631C.068.643.07.65.092.66v0c.04.012.074.076.124.088L.249.739.275.748s-.1,0-.091-.006c0,.021.027.129.006.149a.132.132,0,0,1-.055,0C.146.9.168.9.165.9A.083.083,0,0,1,.136.9S.129.91.144.91a.649.649,0,0,1,.076,0l0,.01H.191S.259.921.246.931s0,.036-.008.053A.076.076,0,0,1,.206.977S.208.983.2.985c.026,0,.017.007.028,0,.06.012.006.029.046.04s.929.024.993.024c0,0,0,.007-.007.008.015,0,.022-.008.013-.011H1.237c-.012-.008.02,0,.018-.011.028,0,.034.007.037.014s.024-.012-.007-.014c.012-.006.034,0,.047-.006C1.323,1.027,1.3,1.021,1.312,1.016Z" transform="translate(20.364 2.94)" fill="#000"/>
    <path id="Path_1841" data-name="Path 1841" d="M0,.014C.026.011.037.006.034,0,.007,0,0,.009,0,.014Z" transform="translate(20.461 5.064)" fill="#000"/>
    <path id="Path_1842" data-name="Path 1842" d="M0,0H0Z" transform="translate(20.461 5.078)" fill="#000"/>
    <path id="Path_1843" data-name="Path 1843" d="M1.312,1.015h0C1.346,1,1.275,1,1.3.983h.009c.016,0-.005-.013.012-.021-.005,0-.026,0-.029,0,.018-.009,0-.015.022-.021L1.29.935A1.3,1.3,0,0,0,1.251.751h0C1.242.7,1.244.606,1.206.558c.027-.008.02-.018.028-.026-.011,0-.03,0-.029,0,0-.024-.019,0-.031-.026s0-.136.027-.161C1.161.331,1.191.314,1.166.3h.009C1.16.288,1.2.208,1.183.192l-.006,0C1.153.18,1.2.182,1.21.171A.118.118,0,0,1,1.136.155h.01C1.138.148,1.1.132,1.093.12h.024C1.092.111,1.1.093,1.1.086s.053-.04.021-.062L1.19.01l-.007,0S.337-.014.157.014H.132l0,.006C.124.026.152.029.127.029l0-.009C.124.027.11.022.1.019A.021.021,0,0,1,.084.027.029.029,0,0,0,.1.025C.108.028.131.033.12.038S.08.038.077.047A.254.254,0,0,0,.035.172a.024.024,0,0,1-.014,0C.032.184.028.2.039.207A.29.29,0,0,1,0,.212c.02,0,.022.065.017.066H.064c0,.013-.051,0-.04.016C.086.3.017.314.05.318c0,0-.007.006-.027.006C.058.325.032.329.04.333a.086.086,0,0,0,.02,0L.073.339a.061.061,0,0,1-.035,0C.026.361-.006.465.011.488.037.486.019.478.059.476.082.482.052.485.075.487.015.49.061.5,0,.506l.034,0-.021,0C.049.538.03.517.023.541S.075.562.058.569a.057.057,0,0,1,.03,0C.058.569.109.578.079.58c0,0,0,.015.041.011C.1.593.091.6.073.6c0,0-.007.007,0,.009L.086.6C.092.614.06.62.1.628l.016,0C.116.63.119.636.079.639L.066.631C.068.643.07.65.092.66v0c.04.012.074.077.124.088l.032,0L.275.748s-.1,0-.091-.006c0,.021.027.129.006.149a.132.132,0,0,1-.055,0C.146.9.168.9.165.9A.083.083,0,0,1,.136.9S.129.91.144.91a.629.629,0,0,1,.076,0l0,.011H.191S.259.921.246.931s0,.035-.008.053A.076.076,0,0,1,.206.977S.208.982.2.985c.026,0,.017.007.028,0,.06.013.006.029.046.04s.929.024.993.024c0,0,0,.007-.007.008.015,0,.022-.008.013-.011H1.237c-.012-.008.02,0,.018-.01.028,0,.034.007.037.014s.024-.012-.007-.014c.012-.006.034,0,.047-.006C1.323,1.027,1.3,1.021,1.312,1.015Z" transform="translate(20.364 5.06)" fill="#000"/>
    <path id="Path_1844" data-name="Path 1844" d="M0,.014C.026.011.037.006.034,0,.007,0,0,.009,0,.014Z" transform="translate(20.461 7.183)" fill="#000"/>
    <path id="Path_1845" data-name="Path 1845" d="M0,0H0Z" transform="translate(20.461 7.198)" fill="#000"/>
    <path id="Path_1846" data-name="Path 1846" d="M1.312,1.015h0C1.346,1,1.275,1,1.3.983h.009c.016,0-.005-.013.012-.021-.005,0-.026,0-.029,0,.018-.009,0-.015.022-.022L1.29.935A1.3,1.3,0,0,0,1.251.751h0C1.242.7,1.244.606,1.206.558c.027-.008.02-.018.028-.026-.011,0-.03,0-.029,0,0-.024-.019,0-.031-.026s0-.136.027-.161C1.161.331,1.191.314,1.166.3h.009C1.16.288,1.2.208,1.183.192l-.006,0C1.153.18,1.2.182,1.21.17A.115.115,0,0,1,1.136.155h.01C1.138.148,1.1.132,1.093.12h.024C1.092.111,1.1.093,1.1.086s.053-.04.021-.062L1.19.01l-.007,0S.337-.014.157.014H.132l0,.006C.124.026.152.029.127.029l0-.009C.124.026.11.022.1.019A.024.024,0,0,1,.084.027.025.025,0,0,0,.1.025C.108.028.131.033.12.038S.08.038.077.047A.254.254,0,0,0,.035.172c-.011,0-.01,0-.014,0C.032.184.028.2.039.207A.224.224,0,0,1,0,.212c.02,0,.022.065.017.065H.064c0,.013-.051,0-.04.015C.086.3.017.314.05.318A.067.067,0,0,1,.024.323C.058.325.032.329.04.333a.067.067,0,0,0,.02,0L.073.339a.057.057,0,0,1-.035,0C.026.361-.006.465.011.488.037.486.019.478.059.476.082.482.052.485.075.487.015.49.061.5,0,.506l.034,0-.021,0C.049.538.03.517.023.541S.075.562.058.569a.057.057,0,0,1,.03,0C.058.569.109.578.079.58c0,0,0,.015.041.011C.1.593.091.6.073.6c0,0-.007.007,0,.009L.086.6C.092.614.06.62.1.628l.016,0C.116.63.119.636.079.639L.066.631C.068.643.07.65.092.66v0c.04.012.074.077.124.088l.032,0L.275.748s-.1,0-.091-.006c0,.021.027.129.006.148a.133.133,0,0,1-.055,0C.146.9.168.9.165.9A.083.083,0,0,1,.136.9S.129.91.144.91a.622.622,0,0,1,.076,0l0,.011H.191S.259.921.246.931s0,.035-.008.053A.076.076,0,0,1,.206.977S.208.982.2.985c.026,0,.017.007.028,0,.06.013.006.029.046.04s.929.024.993.024c0,0,0,.007-.007.008.015,0,.022-.008.013-.011H1.237c-.012-.008.02,0,.018-.01.028,0,.034.007.037.014s.024-.012-.007-.014c.012-.006.034,0,.047-.006C1.323,1.027,1.3,1.021,1.312,1.015Z" transform="translate(20.364 7.179)" fill="#000"/>
    <path id="Path_1847" data-name="Path 1847" d="M0,.014C.026.01.037.006.034,0,.007,0,0,.009,0,.014Z" transform="translate(20.461 9.303)" fill="#000"/>
    <path id="Path_1848" data-name="Path 1848" d="M0,0H0Z" transform="translate(20.461 9.317)" fill="#000"/>
    <path id="Path_1849" data-name="Path 1849" d="M1.312,1.015h0C1.346,1,1.275,1,1.3.983h.009c.016,0-.005-.013.012-.021-.005,0-.026,0-.029,0,.018-.009,0-.015.022-.022L1.29.935A1.3,1.3,0,0,0,1.251.751h0C1.242.7,1.244.606,1.206.557c.027-.007.02-.018.028-.026-.011,0-.03,0-.029,0,0-.024-.019,0-.031-.026s0-.136.027-.161C1.161.331,1.191.314,1.166.3h.009C1.16.288,1.2.208,1.183.192l-.006,0C1.153.18,1.2.182,1.21.17A.11.11,0,0,1,1.136.155h.01C1.138.148,1.1.132,1.093.12h.024C1.092.111,1.1.093,1.1.086s.053-.04.021-.062L1.19.01l-.007,0S.337-.014.157.014H.132l0,.006C.124.026.152.029.127.029l0-.009C.124.026.11.022.1.019A.023.023,0,0,1,.084.027.025.025,0,0,0,.1.025C.108.028.131.033.12.038S.08.038.077.046A.254.254,0,0,0,.035.172c-.011,0-.01,0-.014,0S.028.2.039.207A.221.221,0,0,1,0,.212c.02,0,.022.064.017.065H.064c0,.013-.051,0-.04.015C.086.3.017.314.05.318A.067.067,0,0,1,.024.323C.058.325.032.329.04.333a.066.066,0,0,0,.02,0L.073.339a.057.057,0,0,1-.035,0C.026.361-.006.465.011.488.037.486.019.478.059.476.082.482.052.484.075.487.015.489.061.5,0,.506l.034,0-.021,0C.049.538.03.517.023.541S.075.562.058.569a.055.055,0,0,1,.03,0C.058.569.109.578.079.58c0,0,0,.015.041.011C.1.593.091.6.073.6c0,0-.007.007,0,.009L.086.6C.092.614.06.62.1.628l.016,0C.116.63.119.636.079.639L.066.631C.068.643.07.65.092.66v0c.04.012.074.077.124.088L.249.739.275.748s-.1,0-.091-.006c0,.021.027.129.006.148a.133.133,0,0,1-.055,0C.146.9.168.9.165.9A.071.071,0,0,1,.136.9S.129.91.144.91a.629.629,0,0,1,.076,0l0,.011H.191S.259.921.246.931s0,.035-.008.053A.076.076,0,0,1,.206.977S.208.982.2.985c.026,0,.017.007.028,0,.06.013.006.029.046.04s.929.024.993.024c0,0,0,.007-.007.008.015,0,.022-.008.013-.012H1.237c-.012-.008.02,0,.018-.01.028,0,.034.007.037.014s.024-.012-.007-.014c.012-.006.034,0,.047-.006C1.323,1.027,1.3,1.021,1.312,1.015Z" transform="translate(20.364 9.299)" fill="#000"/>
    <path id="Path_1850" data-name="Path 1850" d="M0,.014C.026.01.037.006.034,0,.007,0,0,.009,0,.014Z" transform="translate(20.461 11.422)" fill="#000"/>
    <path id="Path_1851" data-name="Path 1851" d="M0,0H0Z" transform="translate(20.461 11.437)" fill="#000"/>
    <path id="Path_1852" data-name="Path 1852" d="M1.312,1.015h0C1.346,1,1.275,1,1.3.983h.009c.016,0-.005-.013.012-.021-.005,0-.026,0-.029,0,.018-.009,0-.015.022-.022L1.29.935A1.3,1.3,0,0,0,1.251.751h0C1.242.7,1.244.606,1.206.557c.027-.007.02-.018.028-.026-.011,0-.03,0-.029,0,0-.024-.019,0-.031-.026s0-.136.027-.161C1.161.33,1.191.314,1.166.3h.009C1.16.288,1.2.208,1.183.192l-.006,0C1.153.18,1.2.182,1.21.17A.11.11,0,0,1,1.136.155h.01C1.138.148,1.1.132,1.093.12h.024C1.092.111,1.1.093,1.1.086s.053-.04.021-.062L1.19.01l-.007,0S.337-.014.157.014H.132l0,.006C.124.026.152.029.127.029l0-.009C.124.026.11.022.1.019A.024.024,0,0,1,.084.027.026.026,0,0,0,.1.025C.108.028.131.033.12.038S.08.038.077.046A.258.258,0,0,0,.035.172a.023.023,0,0,1-.014,0C.032.183.028.2.039.207A.217.217,0,0,1,0,.212c.02,0,.022.064.017.065H.064c0,.013-.051,0-.04.016C.086.3.017.314.05.318A.067.067,0,0,1,.024.323C.058.325.032.329.04.333a.068.068,0,0,0,.02,0L.073.339a.057.057,0,0,1-.035,0C.026.361-.006.465.011.488.037.486.019.478.059.476.082.482.052.485.075.487.015.489.061.5,0,.506l.034,0-.021,0C.049.538.03.517.023.54S.075.562.058.569a.063.063,0,0,1,.03,0C.058.569.109.578.079.58c0,0,0,.015.041.011C.1.593.091.6.073.6c0,0-.007.007,0,.009L.086.6C.092.614.06.62.1.628l.016,0C.116.63.119.636.079.639L.066.631C.068.643.07.65.092.66v0c.04.012.074.076.124.088L.249.738l.026.01s-.1,0-.091-.006c0,.021.027.129.006.148a.133.133,0,0,1-.055,0C.146.9.168.9.165.9A.071.071,0,0,1,.136.9S.129.91.144.91a.629.629,0,0,1,.076,0l0,.011H.191S.259.921.246.931s0,.036-.008.053A.076.076,0,0,1,.206.977S.208.982.2.985c.026,0,.017.007.028,0,.06.013.006.029.046.04s.929.024.993.024c0,0,0,.007-.007.008.015,0,.022-.008.013-.012H1.237c-.012-.008.02,0,.018-.01.028,0,.034.007.037.014s.024-.012-.007-.014c.012-.006.034,0,.047-.006C1.323,1.027,1.3,1.021,1.312,1.015Z" transform="translate(20.364 11.418)" fill="#000"/>
    <path id="Path_1853" data-name="Path 1853" d="M0,.014C.026.01.037.006.034,0,.007,0,0,.009,0,.014Z" transform="translate(20.461 13.542)" fill="#000"/>
    <path id="Path_1854" data-name="Path 1854" d="M0,0H0Z" transform="translate(20.461 13.556)" fill="#000"/>
    <path id="Path_1855" data-name="Path 1855" d="M1.312,1.015h0C1.346,1,1.275,1,1.3.983h.009c.016,0-.005-.013.012-.021-.005,0-.026,0-.029,0,.018-.009,0-.015.022-.022L1.29.935A1.321,1.321,0,0,0,1.251.75l0,0C1.242.7,1.244.606,1.206.557c.027-.007.02-.018.028-.026-.011,0-.03,0-.029,0,0-.024-.019,0-.031-.026s0-.135.027-.16C1.161.33,1.191.314,1.166.3l.009,0C1.16.288,1.2.208,1.183.192l-.006,0C1.153.18,1.2.181,1.21.17A.11.11,0,0,1,1.136.155h.01C1.138.148,1.1.132,1.093.12h.024C1.092.111,1.1.093,1.1.086s.053-.04.021-.062L1.19.01l-.007,0S.337-.014.157.014H.132l0,.006C.124.026.152.029.127.029l0-.009C.124.026.11.022.1.019A.024.024,0,0,1,.084.027c.009,0,.01,0,.015,0S.131.033.12.038.08.038.077.046A.258.258,0,0,0,.035.172a.028.028,0,0,1-.014,0C.032.183.028.2.039.207A.171.171,0,0,1,0,.212c.02,0,.022.065.017.066H.064c0,.013-.051,0-.04.016C.086.3.017.314.05.318a.062.062,0,0,1-.027,0c.034,0,.008.006.017.01a.065.065,0,0,0,.02,0L.073.339a.062.062,0,0,1-.035,0C.026.361-.006.465.011.488.037.486.019.478.059.476.082.482.052.485.075.487.015.489.061.5,0,.506l.034,0-.021,0C.049.538.03.517.023.541S.075.561.058.569a.063.063,0,0,1,.03,0C.058.569.109.578.079.58c0,0,0,.015.041.011C.1.593.091.6.073.6c0,0-.007.007,0,.009L.086.6C.092.614.06.62.1.628l.016,0C.116.63.119.636.079.639L.066.631C.068.643.07.65.092.66v0c.04.012.074.076.124.088L.249.738l.026.01S.173.743.183.743c0,.021.027.129.006.148a.134.134,0,0,1-.055,0C.146.9.168.9.165.9A.071.071,0,0,1,.136.9S.129.91.144.91a.523.523,0,0,1,.076,0l0,.01H.191S.259.921.246.931s0,.035-.008.053A.077.077,0,0,1,.206.977S.208.982.2.985c.026,0,.017.007.028,0,.06.013.006.029.046.04s.929.024.993.024c0,0,0,.007-.007.008.015,0,.022-.008.013-.012H1.237c-.012-.008.02,0,.018-.01.028,0,.034.007.037.014s.024-.012-.007-.014c.012-.006.034,0,.047-.006C1.323,1.027,1.3,1.021,1.312,1.015Z" transform="translate(20.364 13.538)" fill="#000"/>
    <path id="Path_1856" data-name="Path 1856" d="M0,.014C.026.01.037.006.034,0,.007,0,0,.009,0,.014Z" transform="translate(20.461 15.661)" fill="#000"/>
    <path id="Path_1857" data-name="Path 1857" d="M0,0H0Z" transform="translate(20.461 15.676)" fill="#000"/>
    <path id="Path_1858" data-name="Path 1858" d="M1.312,1.015h0C1.346,1,1.275.995,1.3.983h.009c.016,0-.005-.013.012-.021-.005,0-.026,0-.029,0,.018-.009,0-.015.022-.022L1.29.935A1.32,1.32,0,0,0,1.251.75l0,0C1.242.7,1.244.606,1.206.557c.027-.007.02-.018.028-.026-.011,0-.03,0-.029,0,0-.024-.019,0-.031-.026s0-.136.027-.161C1.161.33,1.191.314,1.166.3l.009,0C1.16.288,1.2.208,1.183.192l-.006,0C1.153.18,1.2.181,1.21.17A.11.11,0,0,1,1.136.155h.01C1.138.148,1.1.132,1.093.12h.024C1.092.111,1.1.093,1.1.086s.053-.04.021-.062L1.19.01l-.007,0S.337-.014.157.014H.132l0,.006C.124.026.152.029.127.029l0-.009C.124.026.11.022.1.019A.023.023,0,0,1,.084.027.03.03,0,0,0,.1.024C.108.028.131.033.12.038S.08.038.077.046A.256.256,0,0,0,.035.172a.028.028,0,0,1-.014,0C.032.183.028.2.039.207A.171.171,0,0,1,0,.212c.02,0,.022.065.017.066H.064c0,.012-.051,0-.04.015C.086.3.017.314.05.318a.062.062,0,0,1-.027,0c.034,0,.008.006.017.01a.067.067,0,0,0,.02,0L.073.339a.061.061,0,0,1-.035,0C.026.361-.006.465.011.488.037.486.019.478.059.476.082.482.052.485.075.487.015.489.061.5,0,.506l.034,0-.021,0C.049.538.03.517.023.541s.052.02.035.028a.063.063,0,0,1,.03,0C.058.569.109.578.079.58c0,0,0,.015.041.011C.1.593.091.6.073.6c0,0-.007.007,0,.009L.086.6C.092.613.06.62.1.628l.016,0C.116.63.119.636.079.639L.066.631C.068.643.07.65.092.66v0c.04.013.074.077.124.088L.249.738l.026.01s-.1,0-.091-.006c0,.021.027.129.006.148a.123.123,0,0,1-.055,0C.146.9.168.9.165.9A.084.084,0,0,1,.136.9S.129.909.144.91a.532.532,0,0,1,.076,0l0,.011H.191S.259.921.246.931s0,.035-.008.053A.076.076,0,0,1,.206.977S.208.982.2.985c.026,0,.017.007.028,0,.06.013.006.029.046.04s.929.024.993.024c0,0,0,.007-.007.008.015,0,.022-.007.013-.011H1.237c-.012-.008.02,0,.018-.01.028,0,.034.007.037.013s.024-.012-.007-.014c.012-.006.034,0,.047-.006C1.323,1.027,1.3,1.021,1.312,1.015Z" transform="translate(20.364 15.657)" fill="#000"/>
  </g>
</svg>
