<svg xmlns="http://www.w3.org/2000/svg" width="21.433" height="18.439" viewBox="0 0 21.433 18.439">
  <path id="Path_1698" data-name="Path 1698" d="M71.433,70.916a8.417,8.417,0,0,1-2.525.733,4.633,4.633,0,0,0,1.933-2.575,8.511,8.511,0,0,1-2.792,1.13,4.282,4.282,0,0,0-3.21-1.47,4.532,4.532,0,0,0-4.4,4.655,4.933,4.933,0,0,0,.114,1.061,12.27,12.27,0,0,1-9.063-4.864,4.842,4.842,0,0,0-.6,2.34A4.73,4.73,0,0,0,52.853,75.8a4.2,4.2,0,0,1-1.992-.582c0,.02,0,.039,0,.059a4.6,4.6,0,0,0,3.527,4.564,4.171,4.171,0,0,1-1.986.08,4.441,4.441,0,0,0,4.108,3.233A8.48,8.48,0,0,1,50,85.081a11.951,11.951,0,0,0,6.741,2.092c8.088,0,12.511-7.093,12.511-13.244q0-.3-.013-.6A9.243,9.243,0,0,0,71.433,70.916Z" transform="translate(-50 -68.733)" fill="#000"/>
</svg>
